<svg xmlns="http://www.w3.org/2000/svg" xmlns:xlink="http://www.w3.org/1999/xlink" contentStyleType="text/css" data-diagram-type="SEQUENCE" height="1573px" preserveAspectRatio="none" style="width:1395px;height:1573px;background:#FFFFFF;" version="1.1" viewBox="0 0 1395 1573" width="1395px" zoomAndPan="magnify"><?plantuml 1.2026.6?><defs/><g><g class="title" data-source-line="10"><text fill="#000000" font-family="'DejaVu Sans'" font-size="14" font-weight="700" lengthAdjust="spacing" textLength="261.7207" x="563.572" y="27.9951">Hosted-alpha admission by route</text></g><rect fill="none" height="459.2969" rx="4" ry="4" style="stroke:#000000;stroke-width:1.5;" width="1187.5864" x="20" y="231.1406"/><rect fill="none" height="340.9922" rx="4" ry="4" style="stroke:#000000;stroke-width:1.5;" width="1167.5864" x="30" y="342.4453"/><rect fill="none" height="652.5234" rx="4" ry="4" style="stroke:#000000;stroke-width:1.5;" width="1369.8647" x="10" y="812.8203"/><rect fill="none" height="459.2969" rx="4" ry="4" style="stroke:#000000;stroke-width:1.5;" width="1349.8647" x="20" y="999.0469"/><rect fill="none" height="323.5313" rx="4" ry="4" style="stroke:#000000;stroke-width:1.5;" width="1329.8647" x="30" y="1127.8125"/><g class="participant-lifeline" data-entity-uid="part1" data-qualified-name="Caller" data-source-line="12" id="part1-lifeline"><g><title>Caller</title><rect fill="#000000" fill-opacity="0.00000" height="1452.4297" width="8" x="60.698" y="119.7578"/><line style="stroke:#181818;stroke-width:0.5;stroke-dasharray:5,5;" x1="64" x2="64" y1="119.7578" y2="1572.1875"/></g></g><g class="participant-lifeline" data-entity-uid="part2" data-qualified-name="Whole" data-source-line="13" id="part2-lifeline"><g><title>HostedAlphaResourceLimitFilter</title><rect fill="#000000" fill-opacity="0.00000" height="1452.4297" width="8" x="351.9294" y="119.7578"/><line style="stroke:#181818;stroke-width:0.5;stroke-dasharray:5,5;" x1="355.5449" x2="355.5449" y1="119.7578" y2="1572.1875"/></g></g><g class="participant-lifeline" data-entity-uid="part3" data-qualified-name="Gate" data-source-line="14" id="part3-lifeline"><g><title>HostedAlphaProviderAdmission</title><rect fill="#000000" fill-opacity="0.00000" height="1452.4297" width="8" x="649.0825" y="119.7578"/><line style="stroke:#181818;stroke-width:0.5;stroke-dasharray:5,5;" x1="652.314" x2="652.314" y1="119.7578" y2="1572.1875"/></g></g><g class="participant-lifeline" data-entity-uid="part4" data-qualified-name="App" data-source-line="15" id="part4-lifeline"><g><title>Hosted surface</title><rect fill="#000000" fill-opacity="0.00000" height="1452.4297" width="8" x="920.5532" y="119.7578"/><line style="stroke:#181818;stroke-width:0.5;stroke-dasharray:5,5;" x1="923.8511" x2="923.8511" y1="119.7578" y2="1572.1875"/></g></g><g class="participant-lifeline" data-entity-uid="part5" data-qualified-name="Location" data-source-line="16" id="part5-lifeline"><g><title>Location resolver</title><rect fill="#000000" fill-opacity="0.00000" height="1452.4297" width="8" x="1274.2139" y="119.7578"/><line style="stroke:#181818;stroke-width:0.5;stroke-dasharray:5,5;" x1="1277.563" x2="1277.563" y1="119.7578" y2="1572.1875"/></g></g><g class="participant participant-head" data-entity-uid="part1" data-qualified-name="Caller" data-source-line="12" id="part1-head"><text fill="#000000" font-family="'DejaVu Sans'" font-size="15" lengthAdjust="spacing" textLength="43.396" x="40" y="116.2202">Caller</text><ellipse cx="64.698" cy="50.7969" fill="#E2E2F0" rx="8" ry="8" style="stroke:#181818;stroke-width:0.5;"/><path d="M64.698,58.7969 L64.698,85.7969 M51.698,66.7969 L77.698,66.7969 M64.698,85.7969 L51.698,100.7969 M64.698,85.7969 L77.698,100.7969" fill="none" style="stroke:#181818;stroke-width:0.5;"/></g><g class="participant participant-head" data-entity-uid="part2" data-qualified-name="Whole" data-source-line="13" id="part2-head"><rect fill="#E2E2F0" height="48.9219" rx="4" ry="4" style="stroke:#181818;stroke-width:0.5;" width="254.769" x="228.5449" y="69.8359"/><text fill="#000000" font-family="'DejaVu Sans'" font-size="15" lengthAdjust="spacing" textLength="240.769" x="235.5449" y="90.7593">HostedAlphaResourceLimitFilter</text><text fill="#000000" font-family="'DejaVu Sans'" font-size="15" lengthAdjust="spacing" textLength="181.8311" x="265.0139" y="108.2202">Whole-site TB: 40 &#183; +1/s</text></g><g class="participant participant-head" data-entity-uid="part3" data-qualified-name="Gate" data-source-line="14" id="part3-head"><rect fill="#E2E2F0" height="48.9219" rx="4" ry="4" style="stroke:#181818;stroke-width:0.5;" width="319.5371" x="493.314" y="69.8359"/><text fill="#000000" font-family="'DejaVu Sans'" font-size="15" lengthAdjust="spacing" textLength="234.9463" x="535.6094" y="90.7593">HostedAlphaProviderAdmission</text><text fill="#000000" font-family="'DejaVu Sans'" font-size="15" lengthAdjust="spacing" textLength="305.5371" x="500.314" y="108.2202">Semaphore: 2 &#183; provider TB: 10 &#183; +1/min</text></g><g class="participant participant-head" data-entity-uid="part4" data-qualified-name="App" data-source-line="15" id="part4-head"><rect fill="#E2E2F0" height="48.9219" rx="4" ry="4" style="stroke:#181818;stroke-width:0.5;" width="203.4043" x="822.8511" y="69.8359"/><text fill="#000000" font-family="'DejaVu Sans'" font-size="15" lengthAdjust="spacing" textLength="113.1079" x="867.9993" y="90.7593">Hosted surface</text><text fill="#000000" font-family="'DejaVu Sans'" font-size="15" lengthAdjust="spacing" textLength="189.4043" x="829.8511" y="108.2202">and feedback application</text></g><g class="participant participant-head" data-entity-uid="part5" data-qualified-name="Location" data-source-line="16" id="part5-head"><rect fill="#E2E2F0" height="48.9219" rx="4" ry="4" style="stroke:#181818;stroke-width:0.5;" width="143.3018" x="1206.563" y="69.8359"/><text fill="#000000" font-family="'DejaVu Sans'" font-size="15" lengthAdjust="spacing" textLength="129.3018" x="1213.563" y="90.7593">Location resolver</text><text fill="#000000" font-family="'DejaVu Sans'" font-size="15" lengthAdjust="spacing" textLength="121.8384" x="1217.2947" y="108.2202">cache / provider</text></g><rect fill="#EEEEEE" height="3" rx="4" ry="4" style="stroke:#EEEEEE;stroke-width:1;" width="1389.8647" x="0" y="151.4883"/><line style="stroke:#000000;stroke-width:1;" x1="0" x2="1389.8647" y1="151.4883" y2="151.4883"/><line style="stroke:#000000;stroke-width:1;" x1="0" x2="1389.8647" y1="154.4883" y2="154.4883"/><rect fill="#EEEEEE" height="25.4609" rx="4" ry="4" style="stroke:#000000;stroke-width:2;" width="121.7686" x="634.0481" y="139.7578"/><text fill="#000000" font-family="'DejaVu Sans'" font-size="15" font-weight="700" lengthAdjust="spacing" textLength="102.5464" x="640.0481" y="157.6812">Opportunity</text><g class="message" data-entity-1="part1" data-entity-2="part2" data-source-line="20" id="msg1"><polygon fill="#181818" points="343.9294,212.1406,353.9294,216.1406,343.9294,220.1406,347.9294,216.1406" style="stroke:#181818;stroke-width:1;stroke-linejoin:miter;stroke-miterlimit:10;"/><line style="stroke:#181818;stroke-width:1;" x1="64.698" x2="349.9294" y1="216.1406" y2="216.1406"/><text fill="#000000" font-family="'DejaVu Sans'" font-size="15" lengthAdjust="spacing" textLength="224.8975" x="71.698" y="193.1421">GET / HEAD /api/opportunities</text><text fill="#000000" font-family="'DejaVu Sans'" font-size="15" lengthAdjust="spacing" textLength="176.1694" x="71.698" y="210.603">Spend whole-site token</text></g><path d="M24,231.1406 L87.4341,231.1406 L87.4341,240.6016 L77.4341,250.6016 L20,250.6016 L20,235.1406 A4,4 0 0 1 24,231.1406" fill="#EEEEEE" style="stroke:#000000;stroke-width:1.5;"/><rect fill="none" height="459.2969" rx="4" ry="4" style="stroke:#000000;stroke-width:1.5;" width="1187.5864" x="20" y="231.1406"/><text fill="#000000" font-family="'DejaVu Sans'" font-size="15" font-weight="700" lengthAdjust="spacing" textLength="22.4341" x="35" y="246.064">alt</text><text fill="#000000" font-family="'DejaVu Sans'" font-size="15" font-weight="700" lengthAdjust="spacing" textLength="260.7788" x="102.4341" y="247.064">[Whole-site token unavailable]</text><g class="message" data-entity-1="part2" data-entity-2="part1" data-source-line="22" id="msg2"><polygon fill="#181818" points="75.698,272.5234,65.698,276.5234,75.698,280.5234,71.698,276.5234" style="stroke:#181818;stroke-width:1;stroke-linejoin:miter;stroke-miterlimit:10;"/><line style="stroke:#181818;stroke-width:1;stroke-dasharray:2,2;" x1="69.698" x2="354.9294" y1="276.5234" y2="276.5234"/><text fill="#000000" font-family="'DejaVu Sans'" font-size="15" lengthAdjust="spacing" textLength="133.5425" x="81.698" y="270.9858">429 + Retry-After</text></g><line style="stroke:#000000;stroke-width:1;stroke-dasharray:2,2;" x1="20" x2="1207.5864" y1="285.5234" y2="285.5234"/><text fill="#000000" font-family="'DejaVu Sans'" font-size="15" font-weight="700" lengthAdjust="spacing" textLength="210.6299" x="25" y="299.4468">[Whole-site token spent]</text><g class="message" data-entity-1="part2" data-entity-2="part3" data-source-line="24" id="msg3"><polygon fill="#181818" points="641.0825,323.4453,651.0825,327.4453,641.0825,331.4453,645.0825,327.4453" style="stroke:#181818;stroke-width:1;stroke-linejoin:miter;stroke-miterlimit:10;"/><line style="stroke:#181818;stroke-width:1;" x1="355.9294" x2="647.0825" y1="327.4453" y2="327.4453"/><text fill="#000000" font-family="'DejaVu Sans'" font-size="15" lengthAdjust="spacing" textLength="89.729" x="362.9294" y="321.9077">tryAcquire()</text></g><path d="M34,342.4453 L97.4341,342.4453 L97.4341,351.9063 L87.4341,361.9063 L30,361.9063 L30,346.4453 A4,4 0 0 1 34,342.4453" fill="#EEEEEE" style="stroke:#000000;stroke-width:1.5;"/><rect fill="none" height="340.9922" rx="4" ry="4" style="stroke:#000000;stroke-width:1.5;" width="1167.5864" x="30" y="342.4453"/><text fill="#000000" font-family="'DejaVu Sans'" font-size="15" font-weight="700" lengthAdjust="spacing" textLength="22.4341" x="45" y="357.3687">alt</text><text fill="#000000" font-family="'DejaVu Sans'" font-size="15" font-weight="700" lengthAdjust="spacing" textLength="279.5288" x="112.4341" y="358.3687">[Provider admission unavailable]</text><g class="message" data-entity-1="part3" data-entity-2="part2" data-source-line="26" id="msg4"><polygon fill="#181818" points="366.9294,383.8281,356.9294,387.8281,366.9294,391.8281,362.9294,387.8281" style="stroke:#181818;stroke-width:1;stroke-linejoin:miter;stroke-miterlimit:10;"/><line style="stroke:#181818;stroke-width:1;stroke-dasharray:2,2;" x1="360.9294" x2="652.0825" y1="387.8281" y2="387.8281"/><text fill="#000000" font-family="'DejaVu Sans'" font-size="15" lengthAdjust="spacing" textLength="224.187" x="372.9294" y="382.2905">Rejected + retryAfterSeconds</text></g><g class="message" data-entity-1="part2" data-entity-2="part1" data-source-line="27" id="msg5"><polygon fill="#181818" points="75.698,432.75,65.698,436.75,75.698,440.75,71.698,436.75" style="stroke:#181818;stroke-width:1;stroke-linejoin:miter;stroke-miterlimit:10;"/><line style="stroke:#181818;stroke-width:1;stroke-dasharray:2,2;" x1="69.698" x2="354.9294" y1="436.75" y2="436.75"/><text fill="#000000" font-family="'DejaVu Sans'" font-size="15" lengthAdjust="spacing" textLength="133.5425" x="81.698" y="413.7515">429 + Retry-After</text><text fill="#000000" font-family="'DejaVu Sans'" font-size="15" lengthAdjust="spacing" textLength="202.5879" x="81.698" y="431.2124">(1 second when no permit)</text></g><line style="stroke:#000000;stroke-width:1;stroke-dasharray:2,2;" x1="30" x2="1197.5864" y1="445.75" y2="445.75"/><text fill="#000000" font-family="'DejaVu Sans'" font-size="15" font-weight="700" lengthAdjust="spacing" textLength="92.0801" x="35" y="459.6733">[Admitted]</text><g class="message" data-entity-1="part3" data-entity-2="part2" data-source-line="29" id="msg6"><polygon fill="#181818" points="366.9294,483.6719,356.9294,487.6719,366.9294,491.6719,362.9294,487.6719" style="stroke:#181818;stroke-width:1;stroke-linejoin:miter;stroke-miterlimit:10;"/><line style="stroke:#181818;stroke-width:1;stroke-dasharray:2,2;" x1="360.9294" x2="652.0825" y1="487.6719" y2="487.6719"/><text fill="#000000" font-family="'DejaVu Sans'" font-size="15" lengthAdjust="spacing" textLength="121.4429" x="372.9294" y="482.1343">Admission lease</text></g><g class="message" data-entity-1="part2" data-entity-2="part4" data-source-line="30" id="msg7"><polygon fill="#181818" points="912.5532,515.1328,922.5532,519.1328,912.5532,523.1328,916.5532,519.1328" style="stroke:#181818;stroke-width:1;stroke-linejoin:miter;stroke-miterlimit:10;"/><line style="stroke:#181818;stroke-width:1;" x1="355.9294" x2="918.5532" y1="519.1328" y2="519.1328"/><text fill="#000000" font-family="'DejaVu Sans'" font-size="15" lengthAdjust="spacing" textLength="358.6523" x="362.9294" y="513.5952">Continue filter chain; permit spans downstream</text></g><g class="message" data-entity-1="part4" data-entity-2="part4" data-source-line="31" id="msg8"><line style="stroke:#181818;stroke-width:1;" x1="924.5532" x2="966.5532" y1="568.0547" y2="568.0547"/><line style="stroke:#181818;stroke-width:1;" x1="966.5532" x2="966.5532" y1="568.0547" y2="581.0547"/><line style="stroke:#181818;stroke-width:1;" x1="925.5532" x2="966.5532" y1="581.0547" y2="581.0547"/><polygon fill="#181818" points="935.5532,577.0547,925.5532,581.0547,935.5532,585.0547,931.5532,581.0547" style="stroke:#181818;stroke-width:1;stroke-linejoin:miter;stroke-miterlimit:10;"/><text fill="#000000" font-family="'DejaVu Sans'" font-size="15" lengthAdjust="spacing" textLength="254.0332" x="931.5532" y="545.0562">Surface policy, controller, caches,</text><text fill="#000000" font-family="'DejaVu Sans'" font-size="15" lengthAdjust="spacing" textLength="136.8823" x="931.5532" y="562.5171">and provider work</text></g><g class="message" data-entity-1="part4" data-entity-2="part2" data-source-line="32" id="msg9"><polygon fill="#181818" points="366.9294,608.5156,356.9294,612.5156,366.9294,616.5156,362.9294,612.5156" style="stroke:#181818;stroke-width:1;stroke-linejoin:miter;stroke-miterlimit:10;"/><line style="stroke:#181818;stroke-width:1;stroke-dasharray:2,2;" x1="360.9294" x2="923.5532" y1="612.5156" y2="612.5156"/><text fill="#000000" font-family="'DejaVu Sans'" font-size="15" lengthAdjust="spacing" textLength="168.6255" x="372.9294" y="606.978">Downstream response</text></g><g class="message" data-entity-1="part2" data-entity-2="part3" data-source-line="33" id="msg10"><polygon fill="#181818" points="641.0825,639.9766,651.0825,643.9766,641.0825,647.9766,645.0825,643.9766" style="stroke:#181818;stroke-width:1;stroke-linejoin:miter;stroke-miterlimit:10;"/><line style="stroke:#181818;stroke-width:1;" x1="355.9294" x2="647.0825" y1="643.9766" y2="643.9766"/><text fill="#000000" font-family="'DejaVu Sans'" font-size="15" lengthAdjust="spacing" textLength="204.4556" x="362.9294" y="638.439">Close lease; release permit</text></g><g class="message" data-entity-1="part2" data-entity-2="part1" data-source-line="34" id="msg11"><polygon fill="#181818" points="75.698,671.4375,65.698,675.4375,75.698,679.4375,71.698,675.4375" style="stroke:#181818;stroke-width:1;stroke-linejoin:miter;stroke-miterlimit:10;"/><line style="stroke:#181818;stroke-width:1;stroke-dasharray:2,2;" x1="69.698" x2="354.9294" y1="675.4375" y2="675.4375"/><text fill="#000000" font-family="'DejaVu Sans'" font-size="15" lengthAdjust="spacing" textLength="72.7148" x="81.698" y="669.8999">Response</text></g><rect fill="#EEEEEE" height="3" rx="4" ry="4" style="stroke:#EEEEEE;stroke-width:1;" width="1389.8647" x="0" y="719.168"/><line style="stroke:#000000;stroke-width:1;" x1="0" x2="1389.8647" y1="719.168" y2="719.168"/><line style="stroke:#000000;stroke-width:1;" x1="0" x2="1389.8647" y1="722.168" y2="722.168"/><rect fill="#EEEEEE" height="25.4609" rx="4" ry="4" style="stroke:#000000;stroke-width:2;" width="100.2793" x="644.7927" y="707.4375"/><text fill="#000000" font-family="'DejaVu Sans'" font-size="15" font-weight="700" lengthAdjust="spacing" textLength="81.0571" x="650.7927" y="725.3608">Feedback</text><g class="message" data-entity-1="part1" data-entity-2="part2" data-source-line="40" id="msg12"><polygon fill="#181818" points="343.9294,762.3594,353.9294,766.3594,343.9294,770.3594,347.9294,766.3594" style="stroke:#181818;stroke-width:1;stroke-linejoin:miter;stroke-miterlimit:10;"/><line style="stroke:#181818;stroke-width:1;" x1="64.698" x2="349.9294" y1="766.3594" y2="766.3594"/><text fill="#000000" font-family="'DejaVu Sans'" font-size="15" lengthAdjust="spacing" textLength="267.2314" x="71.698" y="760.8218">Exact capability or submission path</text></g><g class="message" data-entity-1="part2" data-entity-2="part4" data-source-line="41" id="msg13"><polygon fill="#181818" points="912.5532,793.8203,922.5532,797.8203,912.5532,801.8203,916.5532,797.8203" style="stroke:#181818;stroke-width:1;stroke-linejoin:miter;stroke-miterlimit:10;"/><line style="stroke:#181818;stroke-width:1;" x1="355.9294" x2="918.5532" y1="797.8203" y2="797.8203"/><text fill="#000000" font-family="'DejaVu Sans'" font-size="15" lengthAdjust="spacing" textLength="237.5024" x="362.9294" y="792.2827">Bypass whole-site TokenBucket</text></g><path d="M14,812.8203 L77.4341,812.8203 L77.4341,822.2813 L67.4341,832.2813 L10,832.2813 L10,816.8203 A4,4 0 0 1 14,812.8203" fill="#EEEEEE" style="stroke:#000000;stroke-width:1.5;"/><rect fill="none" height="652.5234" rx="4" ry="4" style="stroke:#000000;stroke-width:1.5;" width="1369.8647" x="10" y="812.8203"/><text fill="#000000" font-family="'DejaVu Sans'" font-size="15" font-weight="700" lengthAdjust="spacing" textLength="22.4341" x="25" y="827.7437">alt</text><text fill="#000000" font-family="'DejaVu Sans'" font-size="15" font-weight="700" lengthAdjust="spacing" textLength="134.707" x="92.4341" y="828.7437">[GET capability]</text><g class="message" data-entity-1="part4" data-entity-2="part4" data-source-line="43" id="msg14"><line style="stroke:#181818;stroke-width:1;" x1="924.5532" x2="966.5532" y1="858.2031" y2="858.2031"/><line style="stroke:#181818;stroke-width:1;" x1="966.5532" x2="966.5532" y1="858.2031" y2="871.2031"/><line style="stroke:#181818;stroke-width:1;" x1="925.5532" x2="966.5532" y1="871.2031" y2="871.2031"/><polygon fill="#181818" points="935.5532,867.2031,925.5532,871.2031,935.5532,875.2031,931.5532,871.2031" style="stroke:#181818;stroke-width:1;stroke-linejoin:miter;stroke-miterlimit:10;"/><text fill="#000000" font-family="'DejaVu Sans'" font-size="15" lengthAdjust="spacing" textLength="254.3188" x="931.5532" y="852.6655">Read feature and repository state</text></g><g class="message" data-entity-1="part4" data-entity-2="part1" data-source-line="44" id="msg15"><polygon fill="#181818" points="75.698,898.6641,65.698,902.6641,75.698,906.6641,71.698,902.6641" style="stroke:#181818;stroke-width:1;stroke-linejoin:miter;stroke-miterlimit:10;"/><line style="stroke:#181818;stroke-width:1;stroke-dasharray:2,2;" x1="69.698" x2="923.5532" y1="902.6641" y2="902.6641"/><text fill="#000000" font-family="'DejaVu Sans'" font-size="15" lengthAdjust="spacing" textLength="106.333" x="81.698" y="897.1265">200 capability</text></g><line style="stroke:#000000;stroke-width:1;stroke-dasharray:2,2;" x1="10" x2="1379.8647" y1="911.6641" y2="911.6641"/><text fill="#000000" font-family="'DejaVu Sans'" font-size="15" font-weight="700" lengthAdjust="spacing" textLength="158.811" x="15" y="925.5874">[POST submission]</text><g class="message" data-entity-1="part4" data-entity-2="part4" data-source-line="46" id="msg16"><line style="stroke:#181818;stroke-width:1;" x1="924.5532" x2="966.5532" y1="971.0469" y2="971.0469"/><line style="stroke:#181818;stroke-width:1;" x1="966.5532" x2="966.5532" y1="971.0469" y2="984.0469"/><line style="stroke:#181818;stroke-width:1;" x1="925.5532" x2="966.5532" y1="984.0469" y2="984.0469"/><polygon fill="#181818" points="935.5532,980.0469,925.5532,984.0469,935.5532,988.0469,931.5532,984.0469" style="stroke:#181818;stroke-width:1;stroke-linejoin:miter;stroke-miterlimit:10;"/><text fill="#000000" font-family="'DejaVu Sans'" font-size="15" lengthAdjust="spacing" textLength="285.6738" x="931.5532" y="948.0483">Bound transport; parse and normalize</text><text fill="#000000" font-family="'DejaVu Sans'" font-size="15" lengthAdjust="spacing" textLength="339.6606" x="931.5532" y="965.5093">Check feature, UUID, and repository capacity</text></g><path d="M24,999.0469 L87.4341,999.0469 L87.4341,1008.5078 L77.4341,1018.5078 L20,1018.5078 L20,1003.0469 A4,4 0 0 1 24,999.0469" fill="#EEEEEE" style="stroke:#000000;stroke-width:1.5;"/><rect fill="none" height="459.2969" rx="4" ry="4" style="stroke:#000000;stroke-width:1.5;" width="1349.8647" x="20" y="999.0469"/><text fill="#000000" font-family="'DejaVu Sans'" font-size="15" font-weight="700" lengthAdjust="spacing" textLength="22.4341" x="35" y="1013.9702">alt</text><text fill="#000000" font-family="'DejaVu Sans'" font-size="15" font-weight="700" lengthAdjust="spacing" textLength="352.9761" x="102.4341" y="1014.9702">[Request ends before new provider work]</text><g class="message" data-entity-1="part4" data-entity-2="part1" data-source-line="48" id="msg17"><polygon fill="#181818" points="75.698,1057.8906,65.698,1061.8906,75.698,1065.8906,71.698,1061.8906" style="stroke:#181818;stroke-width:1;stroke-linejoin:miter;stroke-miterlimit:10;"/><line style="stroke:#181818;stroke-width:1;stroke-dasharray:2,2;" x1="69.698" x2="923.5532" y1="1061.8906" y2="1061.8906"/><text fill="#000000" font-family="'DejaVu Sans'" font-size="15" lengthAdjust="spacing" textLength="200.9033" x="81.698" y="1038.8921">Validation, replay, conflict,</text><text fill="#000000" font-family="'DejaVu Sans'" font-size="15" lengthAdjust="spacing" textLength="174.9097" x="81.698" y="1056.353">or availability response</text></g><line style="stroke:#000000;stroke-width:1;stroke-dasharray:2,2;" x1="20" x2="1369.8647" y1="1070.8906" y2="1070.8906"/><text fill="#000000" font-family="'DejaVu Sans'" font-size="15" font-weight="700" lengthAdjust="spacing" textLength="229.6802" x="25" y="1084.814">[New report can be stored]</text><g class="message" data-entity-1="part4" data-entity-2="part3" data-source-line="50" id="msg18"><polygon fill="#181818" points="664.0825,1108.8125,654.0825,1112.8125,664.0825,1116.8125,660.0825,1112.8125" style="stroke:#181818;stroke-width:1;stroke-linejoin:miter;stroke-miterlimit:10;"/><line style="stroke:#181818;stroke-width:1;" x1="658.0825" x2="923.5532" y1="1112.8125" y2="1112.8125"/><text fill="#000000" font-family="'DejaVu Sans'" font-size="15" lengthAdjust="spacing" textLength="89.729" x="670.0825" y="1107.2749">tryAcquire()</text></g><path d="M34,1127.8125 L97.4341,1127.8125 L97.4341,1137.2734 L87.4341,1147.2734 L30,1147.2734 L30,1131.8125 A4,4 0 0 1 34,1127.8125" fill="#EEEEEE" style="stroke:#000000;stroke-width:1.5;"/><rect fill="none" height="323.5313" rx="4" ry="4" style="stroke:#000000;stroke-width:1.5;" width="1329.8647" x="30" y="1127.8125"/><text fill="#000000" font-family="'DejaVu Sans'" font-size="15" font-weight="700" lengthAdjust="spacing" textLength="22.4341" x="45" y="1142.7358">alt</text><text fill="#000000" font-family="'DejaVu Sans'" font-size="15" font-weight="700" lengthAdjust="spacing" textLength="326.6162" x="112.4341" y="1143.7358">[Permit or provider token unavailable]</text><g class="message" data-entity-1="part3" data-entity-2="part4" data-source-line="52" id="msg19"><polygon fill="#181818" points="912.5532,1169.1953,922.5532,1173.1953,912.5532,1177.1953,916.5532,1173.1953" style="stroke:#181818;stroke-width:1;stroke-linejoin:miter;stroke-miterlimit:10;"/><line style="stroke:#181818;stroke-width:1;stroke-dasharray:2,2;" x1="653.0825" x2="918.5532" y1="1173.1953" y2="1173.1953"/><text fill="#000000" font-family="'DejaVu Sans'" font-size="15" lengthAdjust="spacing" textLength="224.187" x="660.0825" y="1167.6577">Rejected + retryAfterSeconds</text></g><g class="message" data-entity-1="part4" data-entity-2="part1" data-source-line="53" id="msg20"><polygon fill="#181818" points="75.698,1200.6563,65.698,1204.6563,75.698,1208.6563,71.698,1204.6563" style="stroke:#181818;stroke-width:1;stroke-linejoin:miter;stroke-miterlimit:10;"/><line style="stroke:#181818;stroke-width:1;stroke-dasharray:2,2;" x1="69.698" x2="923.5532" y1="1204.6563" y2="1204.6563"/><text fill="#000000" font-family="'DejaVu Sans'" font-size="15" lengthAdjust="spacing" textLength="196.5234" x="81.698" y="1199.1187">503 feedback_unavailable</text></g><line style="stroke:#000000;stroke-width:1;stroke-dasharray:2,2;" x1="30" x2="1359.8647" y1="1213.6563" y2="1213.6563"/><text fill="#000000" font-family="'DejaVu Sans'" font-size="15" font-weight="700" lengthAdjust="spacing" textLength="92.0801" x="35" y="1227.5796">[Admitted]</text><g class="message" data-entity-1="part3" data-entity-2="part4" data-source-line="55" id="msg21"><polygon fill="#181818" points="912.5532,1251.5781,922.5532,1255.5781,912.5532,1259.5781,916.5532,1255.5781" style="stroke:#181818;stroke-width:1;stroke-linejoin:miter;stroke-miterlimit:10;"/><line style="stroke:#181818;stroke-width:1;stroke-dasharray:2,2;" x1="653.0825" x2="918.5532" y1="1255.5781" y2="1255.5781"/><text fill="#000000" font-family="'DejaVu Sans'" font-size="15" lengthAdjust="spacing" textLength="121.4429" x="660.0825" y="1250.0405">Admission lease</text></g><g class="message" data-entity-1="part4" data-entity-2="part5" data-source-line="56" id="msg22"><polygon fill="#181818" points="1266.2139,1283.0391,1276.2139,1287.0391,1266.2139,1291.0391,1270.2139,1287.0391" style="stroke:#181818;stroke-width:1;stroke-linejoin:miter;stroke-miterlimit:10;"/><line style="stroke:#181818;stroke-width:1;" x1="924.5532" x2="1272.2139" y1="1287.0391" y2="1287.0391"/><text fill="#000000" font-family="'DejaVu Sans'" font-size="15" lengthAdjust="spacing" textLength="217.478" x="931.5532" y="1281.5015">resolveLocationId(locationId)</text></g><g class="message" data-entity-1="part5" data-entity-2="part4" data-source-line="57" id="msg23"><polygon fill="#181818" points="935.5532,1314.5,925.5532,1318.5,935.5532,1322.5,931.5532,1318.5" style="stroke:#181818;stroke-width:1;stroke-linejoin:miter;stroke-miterlimit:10;"/><line style="stroke:#181818;stroke-width:1;stroke-dasharray:2,2;" x1="929.5532" x2="1277.2139" y1="1318.5" y2="1318.5"/><text fill="#000000" font-family="'DejaVu Sans'" font-size="15" lengthAdjust="spacing" textLength="111.2402" x="941.5532" y="1312.9624">Location result</text></g><g class="message" data-entity-1="part4" data-entity-2="part3" data-source-line="58" id="msg24"><polygon fill="#181818" points="664.0825,1345.9609,654.0825,1349.9609,664.0825,1353.9609,660.0825,1349.9609" style="stroke:#181818;stroke-width:1;stroke-linejoin:miter;stroke-miterlimit:10;"/><line style="stroke:#181818;stroke-width:1;" x1="658.0825" x2="923.5532" y1="1349.9609" y2="1349.9609"/><text fill="#000000" font-family="'DejaVu Sans'" font-size="15" lengthAdjust="spacing" textLength="204.4556" x="670.0825" y="1344.4233">Close lease; release permit</text></g><g class="message" data-entity-1="part4" data-entity-2="part4" data-source-line="59" id="msg25"><line style="stroke:#181818;stroke-width:1;" x1="924.5532" x2="966.5532" y1="1398.8828" y2="1398.8828"/><line style="stroke:#181818;stroke-width:1;" x1="966.5532" x2="966.5532" y1="1398.8828" y2="1411.8828"/><line style="stroke:#181818;stroke-width:1;" x1="925.5532" x2="966.5532" y1="1411.8828" y2="1411.8828"/><polygon fill="#181818" points="935.5532,1407.8828,925.5532,1411.8828,935.5532,1415.8828,931.5532,1411.8828" style="stroke:#181818;stroke-width:1;stroke-linejoin:miter;stroke-miterlimit:10;"/><text fill="#000000" font-family="'DejaVu Sans'" font-size="15" lengthAdjust="spacing" textLength="274.6436" x="931.5532" y="1375.8843">Interpret location; then write limiter,</text><text fill="#000000" font-family="'DejaVu Sans'" font-size="15" lengthAdjust="spacing" textLength="161.1987" x="931.5532" y="1393.3452">astronomy, and store</text></g><g class="message" data-entity-1="part4" data-entity-2="part1" data-source-line="60" id="msg26"><polygon fill="#181818" points="75.698,1439.3438,65.698,1443.3438,75.698,1447.3438,71.698,1443.3438" style="stroke:#181818;stroke-width:1;stroke-linejoin:miter;stroke-miterlimit:10;"/><line style="stroke:#181818;stroke-width:1;stroke-dasharray:2,2;" x1="69.698" x2="923.5532" y1="1443.3438" y2="1443.3438"/><text fill="#000000" font-family="'DejaVu Sans'" font-size="15" lengthAdjust="spacing" textLength="145.481" x="81.698" y="1437.8062">Feedback response</text></g><path d="M210,1481.3438 L210,1552.3438 A4,4 0 0 0 214,1556.3438 L794,1556.3438 A4,4 0 0 0 798,1552.3438 L798,1487.3438 L788,1477.3438 L214,1477.3438 A4,4 0 0 0 210,1481.3438" fill="#FEFFDD" style="stroke:#181818;stroke-width:0.5;"/><path d="M788,1477.3438 L788,1485.3438 A2,2 0 0 0 790,1487.3438 L798,1487.3438 L788,1477.3438" fill="#FEFFDD" style="stroke:#181818;stroke-width:0.5;"/><text fill="#000000" font-family="'DejaVu Sans'" font-size="15" lengthAdjust="spacing" textLength="417.7734" x="216" y="1496.2671">The exact Docker readiness probe bypasses admission.</text><text fill="#000000" font-family="'DejaVu Sans'" font-size="15" lengthAdjust="spacing" textLength="567.8833" x="216" y="1513.728">Other non-feedback, non-opportunity routes use whole-site admission only.</text><text fill="#000000" font-family="'DejaVu Sans'" font-size="15" lengthAdjust="spacing" textLength="406.7505" x="216" y="1531.189">Provider credits stay spent after a cache hit or failure.</text><text fill="#000000" font-family="'DejaVu Sans'" font-size="15" lengthAdjust="spacing" textLength="486.3428" x="216" y="1548.6499">The feedback write limiter is separate from these TokenBuckets.</text><?plantuml-src ZLR1JkD84BtxAqgS6940ONUatI2G4W8pIBC3IfYP2zAgOfT93vrkJtURaFsnlU-NRLKxTcm8ktD02cxNgwfNxrNRFofJeCCbP9HZgSELDU4pBWds9lGTlvOmG-Ft4h_hlPdwYs3mldNe5vZPbJ8FaAFsr3fnjZHPQfqX1x-r8-X7IIQbFyXxVA2HLWy6DEMX7Kk-iCRNxun9szN8ERk2uCfsah5zliKia_o3usIXCeBSsZ2tpqaILD047wqFbFLH5mi4p9RAUsKDpDTIOA0amJHO1nUeDRc4KODALO4cm5uLEfB8ANbRkfG-gQKALqe7SlVcsy9gwdiL2Ex6G_Zr6Fxv6mu6HtuFq4CyVHFmrjadhjQDwehkpOoMM2oieo6S25AnUIM23shmfJ8H_WE6dUZWIvTZIlS6JGOvKJR7z16mABHACN2c63ugYcxq9rkT2lTMFqb_AQOBWgEca1XOlvSaPsTmKnJMXTAei8QpioIfM8J-UTNz43vStZ70nylH18wmK4Us2L3akUM2kCZLbiTW7yaag0DyU_4GIeDFg3JEcLMeZg7FcQgSJF_9xt00KmfktH_bFA24M92lSJpd35k4yyZaa8Mr7gK_IkLe_nsVIWdrZ5gowHO1CJPMiUbtIjyfbIaSC8y2AONCABKcyp7W9-g-D_i3Ted4C3LSiR5Ga6FXIM6nAL5Du3GxQsWanQv2J-sqvpBt8LombPKfsIjHoP0kK9dJJH8cY1S0iAkD3uvm6G4uhWcVLGg3mhAarZtWIeEpqWt_5ituNgM-Hi4hwnwtCDjI9qsInlBTSglPN6ZBJSTkJld5-6DJxHkaJhTehB14_aIlLxKTTehryfbt0NTGu5nfaJJl1L_EQpOB38kaI-HuNQ3tRG7VYSR6PVf88SfO3B15JBf4JWd5eXXAHo24EIeimrYt1X_4u5l6wivEZe_RW54EjpUpkrQbBxACPH6pldcgOZwUCpfVvJFMBL7pKhyt5mjYNZR5zE3Bb-j9xsLDaZUjsf3UfhB9VH26FSmfvzK5XbR_CVQwYQ-SD8jhf2Vu6YiLvQodmDfXtZSsg-RGqaRizpCdaRASJ8jtEJ5Rd3nhAtMdgpU-hdJEMPfATwsOZhSsy_eVTx_kzFtnByqI_lCb_cillyouoyjDY_Kg7jOxktvmdUthvkUxJL2pu1lmzihd2xuB_dFEwohjsZ0V1LC3TVfJ2BB1LawyeUNov2N1ou5DRurThYk9nUczGM1ZsSw244Eth6qimrk-j2ehzwhR4U2Exo-AhfvOjgHZ4EIF1VwgaD6pRkRHmEItA_wGmswuQCVcCFrwTBtudsrTT_7hmKF9VBJilxqfhD5hmMekaPG5ge8NOw-hImXGz0DOBKrOL9hCMI5imSDD-SqDtk4G50EHV0FnizpPfV3iE-l77met8DGa_m80?></g></svg>