<svg xmlns="http://www.w3.org/2000/svg" xmlns:xlink="http://www.w3.org/1999/xlink" contentStyleType="text/css" data-diagram-type="SEQUENCE" height="1390px" preserveAspectRatio="none" style="width:1414px;height:1390px;background:#FFFFFF;" version="1.1" viewBox="0 0 1414 1390" width="1414px" zoomAndPan="magnify"><?plantuml 1.2026.6?><defs/><g><g class="title" data-source-line="10"><text fill="#000000" font-family="'DejaVu Sans'" font-size="14" font-weight="700" lengthAdjust="spacing" textLength="246.6338" x="580.6167" y="27.9951">Browser GET /api/opportunities</text></g><rect fill="none" height="1094" rx="4" ry="4" style="stroke:#000000;stroke-width:1.5;" width="1388.8672" x="10" y="278.0469"/><rect fill="none" height="326.5" rx="4" ry="4" style="stroke:#000000;stroke-width:1.5;" width="987.6367" x="367.7813" y="362.5469"/><rect fill="none" height="226.625" rx="4" ry="4" style="stroke:#000000;stroke-width:1.5;" width="522.418" x="833" y="422.7969"/><rect fill="none" height="662" rx="4" ry="4" style="stroke:#000000;stroke-width:1.5;" width="1378.8672" x="20" y="703.0469"/><rect fill="none" height="248.625" rx="4" ry="4" style="stroke:#000000;stroke-width:1.5;" width="1031.0859" x="367.7813" y="939.6719"/><rect fill="none" height="148.75" rx="4" ry="4" style="stroke:#000000;stroke-width:1.5;" width="459.8672" x="939" y="999.9219"/><rect fill="none" height="155.75" rx="4" ry="4" style="stroke:#000000;stroke-width:1.5;" width="885.0039" x="30" y="1202.2969"/><g class="participant-lifeline" data-entity-uid="part1" data-qualified-name="Caller" data-source-line="13" id="part1-lifeline"><g><title>HTTP caller</title><rect fill="#000000" fill-opacity="0.00000" height="1263.5" width="8" x="84.1133" y="125.5469"/><line style="stroke:#181818;stroke-width:0.5;stroke-dasharray:5,5;" x1="88" x2="88" y1="125.5469" y2="1389.0469"/></g></g><g class="participant-lifeline" data-entity-uid="part2" data-qualified-name="Service" data-source-line="14" id="part2-lifeline"><g><title>Controller. search service.</title><rect fill="#000000" fill-opacity="0.00000" height="1263.5" width="8" x="485.8867" y="125.5469"/><line style="stroke:#181818;stroke-width:0.5;stroke-dasharray:5,5;" x1="489.7813" x2="489.7813" y1="125.5469" y2="1389.0469"/></g></g><g class="participant-lifeline" data-entity-uid="part3" data-qualified-name="Location" data-source-line="15" id="part3-lifeline"><g><title>Geocoding</title><rect fill="#000000" fill-opacity="0.00000" height="1263.5" width="8" x="966.8711" y="125.5469"/><line style="stroke:#181818;stroke-width:0.5;stroke-dasharray:5,5;" x1="970.1133" x2="970.1133" y1="125.5469" y2="1389.0469"/></g></g><g class="participant-lifeline" data-entity-uid="part4" data-qualified-name="Weather" data-source-line="16" id="part4-lifeline"><g><title>Weather</title><rect fill="#000000" fill-opacity="0.00000" height="1263.5" width="8" x="1059.7813" y="125.5469"/><line style="stroke:#181818;stroke-width:0.5;stroke-dasharray:5,5;" x1="1063.6289" x2="1063.6289" y1="125.5469" y2="1389.0469"/></g></g><g class="participant participant-head" data-entity-uid="part1" data-qualified-name="Caller" data-source-line="13" id="part1-head"><text fill="#000000" font-family="'DejaVu Sans'" font-size="16" lengthAdjust="spacing" textLength="90.2266" x="40" y="121.7734">HTTP caller</text><ellipse cx="88.1133" cy="55.4219" fill="#E2E2F0" rx="8" ry="8" style="stroke:#181818;stroke-width:0.5;"/><path d="M88.1133,63.4219 L88.1133,90.4219 M75.1133,71.4219 L101.1133,71.4219 M88.1133,90.4219 L75.1133,105.4219 M88.1133,90.4219 L101.1133,105.4219" fill="none" style="stroke:#181818;stroke-width:0.5;"/></g><g class="participant participant-head" data-entity-uid="part2" data-qualified-name="Service" data-source-line="14" id="part2-head"><rect fill="#E2E2F0" height="51.25" rx="4" ry="4" style="stroke:#181818;stroke-width:0.5;" width="224.2109" x="377.7813" y="73.2969"/><text fill="#000000" font-family="'DejaVu Sans'" font-size="16" lengthAdjust="spacing" textLength="210.2109" x="384.7813" y="95.1484">Controller, search service,</text><text fill="#000000" font-family="'DejaVu Sans'" font-size="16" lengthAdjust="spacing" textLength="188.0547" x="395.8594" y="113.7734">and opportunity engine</text></g><g class="participant participant-head" data-entity-uid="part3" data-qualified-name="Location" data-source-line="15" id="part3-head"><text fill="#000000" font-family="'DejaVu Sans'" font-size="16" lengthAdjust="spacing" textLength="85.5156" x="925.1133" y="103.1484">Geocoding</text><text fill="#000000" font-family="'DejaVu Sans'" font-size="16" lengthAdjust="spacing" textLength="47.3828" x="944.1797" y="121.7734">cache</text><path d="M952.8711,52.2969 C952.8711,42.2969 970.8711,42.2969 970.8711,42.2969 C970.8711,42.2969 988.8711,42.2969 988.8711,52.2969 L988.8711,78.2969 C988.8711,88.2969 970.8711,88.2969 970.8711,88.2969 C970.8711,88.2969 952.8711,88.2969 952.8711,78.2969 L952.8711,52.2969" fill="#E2E2F0" style="stroke:#181818;stroke-width:0.5;"/><path d="M952.8711,52.2969 C952.8711,62.2969 970.8711,62.2969 970.8711,62.2969 C970.8711,62.2969 988.8711,62.2969 988.8711,52.2969" fill="none" style="stroke:#181818;stroke-width:0.5;"/></g><g class="participant participant-head" data-entity-uid="part4" data-qualified-name="Weather" data-source-line="16" id="part4-head"><text fill="#000000" font-family="'DejaVu Sans'" font-size="16" lengthAdjust="spacing" textLength="68.3047" x="1026.6289" y="103.1484">Weather</text><text fill="#000000" font-family="'DejaVu Sans'" font-size="16" lengthAdjust="spacing" textLength="47.3828" x="1037.0898" y="121.7734">cache</text><path d="M1045.7813,52.2969 C1045.7813,42.2969 1063.7813,42.2969 1063.7813,42.2969 C1063.7813,42.2969 1081.7813,42.2969 1081.7813,52.2969 L1081.7813,78.2969 C1081.7813,88.2969 1063.7813,88.2969 1063.7813,88.2969 C1063.7813,88.2969 1045.7813,88.2969 1045.7813,78.2969 L1045.7813,52.2969" fill="#E2E2F0" style="stroke:#181818;stroke-width:0.5;"/><path d="M1045.7813,52.2969 C1045.7813,62.2969 1063.7813,62.2969 1063.7813,62.2969 C1063.7813,62.2969 1081.7813,62.2969 1081.7813,52.2969" fill="none" style="stroke:#181818;stroke-width:0.5;"/></g><path d="M10,144.5469 L10,183.5469 A4,4 0 0 0 14,187.5469 L562,187.5469 A4,4 0 0 0 566,183.5469 L566,150.5469 L556,140.5469 L14,140.5469 A4,4 0 0 0 10,144.5469" fill="#FEFFDD" style="stroke:#181818;stroke-width:0.5;"/><path d="M556,140.5469 L556,148.5469 A2,2 0 0 0 558,150.5469 L566,150.5469 L556,140.5469" fill="#FEFFDD" style="stroke:#181818;stroke-width:0.5;"/><text fill="#000000" font-family="'DejaVu Sans'" font-size="16" lengthAdjust="spacing" textLength="481.3516" x="43.3203" y="160.3984">Hosted-alpha resource admission runs before this sequence</text><text fill="#000000" font-family="'DejaVu Sans'" font-size="16" lengthAdjust="spacing" textLength="421.5" x="43.3203" y="179.0234">and may return 429 before the controller is invoked.</text><g class="message" data-entity-1="part1" data-entity-2="part2" data-source-line="23" id="msg1"><polygon fill="#181818" points="477.8867,213.4219,487.8867,217.4219,477.8867,221.4219,481.8867,217.4219" style="stroke:#181818;stroke-width:1;stroke-linejoin:miter;stroke-miterlimit:10;"/><line style="stroke:#181818;stroke-width:1;" x1="88.1133" x2="483.8867" y1="217.4219" y2="217.4219"/><text fill="#000000" font-family="'DejaVu Sans'" font-size="16" font-weight="700" lengthAdjust="spacing" textLength="36.8906" x="95.1133" y="211.6484">[01]</text><text fill="#000000" font-family="'DejaVu Sans'" font-size="16" lengthAdjust="spacing" textLength="191.4531" x="136.0039" y="211.6484">GET with q or locationId</text></g><g class="message" data-entity-1="part2" data-entity-2="part2" data-source-line="24" id="msg2"><line style="stroke:#181818;stroke-width:1;" x1="489.8867" x2="531.8867" y1="250.0469" y2="250.0469"/><line style="stroke:#181818;stroke-width:1;" x1="531.8867" x2="531.8867" y1="250.0469" y2="263.0469"/><line style="stroke:#181818;stroke-width:1;" x1="490.8867" x2="531.8867" y1="263.0469" y2="263.0469"/><polygon fill="#181818" points="500.8867,259.0469,490.8867,263.0469,500.8867,267.0469,496.8867,263.0469" style="stroke:#181818;stroke-width:1;stroke-linejoin:miter;stroke-miterlimit:10;"/><text fill="#000000" font-family="'DejaVu Sans'" font-size="16" font-weight="700" lengthAdjust="spacing" textLength="36.8906" x="496.8867" y="244.2734">[02]</text><text fill="#000000" font-family="'DejaVu Sans'" font-size="16" lengthAdjust="spacing" textLength="285.4766" x="537.7773" y="244.2734">Validate exactly one bounded input</text></g><path d="M14,278.0469 L78.9297,278.0469 L78.9297,288.6719 L68.9297,298.6719 L10,298.6719 L10,282.0469 A4,4 0 0 1 14,278.0469" fill="#EEEEEE" style="stroke:#000000;stroke-width:1.5;"/><rect fill="none" height="1094" rx="4" ry="4" style="stroke:#000000;stroke-width:1.5;" width="1388.8672" x="10" y="278.0469"/><text fill="#000000" font-family="'DejaVu Sans'" font-size="16" font-weight="700" lengthAdjust="spacing" textLength="23.9297" x="25" y="293.8984">alt</text><text fill="#000000" font-family="'DejaVu Sans'" font-size="16" font-weight="700" lengthAdjust="spacing" textLength="295.625" x="93.9297" y="294.8984">[Missing, invalid, or both inputs]</text><g class="message" data-entity-1="part2" data-entity-2="part1" data-source-line="27" id="msg3"><polygon fill="#181818" points="99.1133,322.9219,89.1133,326.9219,99.1133,330.9219,95.1133,326.9219" style="stroke:#181818;stroke-width:1;stroke-linejoin:miter;stroke-miterlimit:10;"/><line style="stroke:#181818;stroke-width:1;stroke-dasharray:2,2;" x1="93.1133" x2="488.8867" y1="326.9219" y2="326.9219"/><text fill="#000000" font-family="'DejaVu Sans'" font-size="16" font-weight="700" lengthAdjust="spacing" textLength="36.8906" x="105.1133" y="321.1484">[03]</text><text fill="#000000" font-family="'DejaVu Sans'" font-size="16" lengthAdjust="spacing" textLength="157.7031" x="146.0039" y="321.1484">400 invalid_request</text></g><line style="stroke:#000000;stroke-width:1;stroke-dasharray:2,2;" x1="10" x2="1398.8672" y1="335.9219" y2="335.9219"/><text fill="#000000" font-family="'DejaVu Sans'" font-size="16" font-weight="700" lengthAdjust="spacing" textLength="113.1641" x="15" y="350.7734">[Valid input]</text><path d="M371.7813,362.5469 L561.0781,362.5469 L561.0781,373.1719 L551.0781,383.1719 L367.7813,383.1719 L367.7813,366.5469 A4,4 0 0 1 371.7813,362.5469" fill="#EEEEEE" style="stroke:#000000;stroke-width:1.5;"/><rect fill="none" height="326.5" rx="4" ry="4" style="stroke:#000000;stroke-width:1.5;" width="987.6367" x="367.7813" y="362.5469"/><text fill="#000000" font-family="'DejaVu Sans'" font-size="16" font-weight="700" lengthAdjust="spacing" textLength="148.2969" x="382.7813" y="378.3984">Resolve location</text><g class="message" data-entity-1="part2" data-entity-2="part3" data-source-line="30" id="msg4"><polygon fill="#181818" points="958.8711,403.7969,968.8711,407.7969,958.8711,411.7969,962.8711,407.7969" style="stroke:#181818;stroke-width:1;stroke-linejoin:miter;stroke-miterlimit:10;"/><line style="stroke:#181818;stroke-width:1;" x1="489.8867" x2="964.8711" y1="407.7969" y2="407.7969"/><text fill="#000000" font-family="'DejaVu Sans'" font-size="16" font-weight="700" lengthAdjust="spacing" textLength="36.8906" x="496.8867" y="402.0234">[04]</text><text fill="#000000" font-family="'DejaVu Sans'" font-size="16" lengthAdjust="spacing" textLength="254.4375" x="537.7773" y="402.0234">Normalized query or location ID</text></g><path d="M837,422.7969 L901.9297,422.7969 L901.9297,433.4219 L891.9297,443.4219 L833,443.4219 L833,426.7969 A4,4 0 0 1 837,422.7969" fill="#EEEEEE" style="stroke:#000000;stroke-width:1.5;"/><rect fill="none" height="226.625" rx="4" ry="4" style="stroke:#000000;stroke-width:1.5;" width="522.418" x="833" y="422.7969"/><text fill="#000000" font-family="'DejaVu Sans'" font-size="16" font-weight="700" lengthAdjust="spacing" textLength="23.9297" x="848" y="438.6484">alt</text><text fill="#000000" font-family="'DejaVu Sans'" font-size="16" font-weight="700" lengthAdjust="spacing" textLength="267.0156" x="916.9297" y="439.6484">[Provider-backed cache miss]</text><g class="message" data-entity-1="part3" data-entity-2="part3" data-source-line="32" id="msg5"><polygon fill="#181818" points="1396.8672,467.6719,1406.8672,471.6719,1396.8672,475.6719,1400.8672,471.6719" style="stroke:#181818;stroke-width:1;stroke-linejoin:miter;stroke-miterlimit:10;"/><line style="stroke:#181818;stroke-width:1;" x1="970.8711" x2="1402.8672" y1="471.6719" y2="471.6719"/><text fill="#000000" font-family="'DejaVu Sans'" font-size="16" font-weight="700" lengthAdjust="spacing" textLength="36.8906" x="977.8711" y="465.8984">[05]</text><text fill="#000000" font-family="'DejaVu Sans'" font-size="16" lengthAdjust="spacing" textLength="322.6563" x="1018.7617" y="465.8984">Resolve through Open-Meteo geocoding</text></g><g class="message" data-entity-1="part3" data-entity-2="part3" data-source-line="33" id="msg6"><polygon fill="#181818" points="981.8711,500.2969,971.8711,504.2969,981.8711,508.2969,977.8711,504.2969" style="stroke:#181818;stroke-width:1;stroke-linejoin:miter;stroke-miterlimit:10;"/><line style="stroke:#181818;stroke-width:1;" x1="975.8711" x2="1407.8672" y1="504.2969" y2="504.2969"/><text fill="#000000" font-family="'DejaVu Sans'" font-size="16" font-weight="700" lengthAdjust="spacing" textLength="36.8906" x="987.8711" y="498.5234">[06]</text><text fill="#000000" font-family="'DejaVu Sans'" font-size="16" lengthAdjust="spacing" textLength="84.3203" x="1028.7617" y="498.5234">Resolution</text></g><line style="stroke:#000000;stroke-width:1;stroke-dasharray:2,2;" x1="833" x2="1355.418" y1="513.2969" y2="513.2969"/><text fill="#000000" font-family="'DejaVu Sans'" font-size="16" font-weight="700" lengthAdjust="spacing" textLength="98.9844" x="838" y="528.1484">[Cache hit]</text><path d="M848,541.9219 L848,561.9219 A4,4 0 0 0 852,565.9219 L1089,565.9219 A4,4 0 0 0 1093,561.9219 L1093,547.9219 L1083,537.9219 L852,537.9219 A4,4 0 0 0 848,541.9219" fill="#FEFFDD" style="stroke:#181818;stroke-width:0.5;"/><path d="M1083,537.9219 L1083,545.9219 A2,2 0 0 0 1085,547.9219 L1093,547.9219 L1083,537.9219" fill="#FEFFDD" style="stroke:#181818;stroke-width:0.5;"/><text fill="#000000" font-family="'DejaVu Sans'" font-size="16" lengthAdjust="spacing" textLength="224.3672" x="854" y="557.7734">No outbound geocoding call</text><line style="stroke:#000000;stroke-width:1;stroke-dasharray:2,2;" x1="833" x2="1355.418" y1="572.5469" y2="572.5469"/><text fill="#000000" font-family="'DejaVu Sans'" font-size="16" font-weight="700" lengthAdjust="spacing" textLength="325.1484" x="838" y="587.3984">[Invalid or non-provider location ID]</text><path d="M843,601.1719 L843,640.1719 A4,4 0 0 0 847,644.1719 L1093,644.1719 A4,4 0 0 0 1097,640.1719 L1097,607.1719 L1087,597.1719 L847,597.1719 A4,4 0 0 0 843,601.1719" fill="#FEFFDD" style="stroke:#181818;stroke-width:0.5;"/><path d="M1087,597.1719 L1087,605.1719 A2,2 0 0 0 1089,607.1719 L1097,607.1719 L1087,597.1719" fill="#FEFFDD" style="stroke:#181818;stroke-width:0.5;"/><text fill="#000000" font-family="'DejaVu Sans'" font-size="16" lengthAdjust="spacing" textLength="233.5391" x="849" y="617.0234">Resolve as not found without</text><text fill="#000000" font-family="'DejaVu Sans'" font-size="16" lengthAdjust="spacing" textLength="206.2969" x="849" y="635.6484">an outbound provider call</text><g class="message" data-entity-1="part3" data-entity-2="part2" data-source-line="42" id="msg7"><polygon fill="#181818" points="500.8867,677.0469,490.8867,681.0469,500.8867,685.0469,496.8867,681.0469" style="stroke:#181818;stroke-width:1;stroke-linejoin:miter;stroke-miterlimit:10;"/><line style="stroke:#181818;stroke-width:1;stroke-dasharray:2,2;" x1="494.8867" x2="969.8711" y1="681.0469" y2="681.0469"/><text fill="#000000" font-family="'DejaVu Sans'" font-size="16" font-weight="700" lengthAdjust="spacing" textLength="36.8906" x="506.8867" y="675.2734">[07]</text><text fill="#000000" font-family="'DejaVu Sans'" font-size="16" lengthAdjust="spacing" textLength="383.1719" x="547.7773" y="675.2734">Resolved, ambiguous, not found, or unavailable</text></g><path d="M24,703.0469 L88.9297,703.0469 L88.9297,713.6719 L78.9297,723.6719 L20,723.6719 L20,707.0469 A4,4 0 0 1 24,703.0469" fill="#EEEEEE" style="stroke:#000000;stroke-width:1.5;"/><rect fill="none" height="662" rx="4" ry="4" style="stroke:#000000;stroke-width:1.5;" width="1378.8672" x="20" y="703.0469"/><text fill="#000000" font-family="'DejaVu Sans'" font-size="16" font-weight="700" lengthAdjust="spacing" textLength="23.9297" x="35" y="718.8984">alt</text><text fill="#000000" font-family="'DejaVu Sans'" font-size="16" font-weight="700" lengthAdjust="spacing" textLength="115.3672" x="103.9297" y="719.8984">[Ambiguous]</text><g class="message" data-entity-1="part2" data-entity-2="part1" data-source-line="46" id="msg8"><polygon fill="#181818" points="99.1133,747.9219,89.1133,751.9219,99.1133,755.9219,95.1133,751.9219" style="stroke:#181818;stroke-width:1;stroke-linejoin:miter;stroke-miterlimit:10;"/><line style="stroke:#181818;stroke-width:1;stroke-dasharray:2,2;" x1="93.1133" x2="488.8867" y1="751.9219" y2="751.9219"/><text fill="#000000" font-family="'DejaVu Sans'" font-size="16" font-weight="700" lengthAdjust="spacing" textLength="36.8906" x="105.1133" y="746.1484">[08]</text><text fill="#000000" font-family="'DejaVu Sans'" font-size="16" lengthAdjust="spacing" textLength="327.5391" x="146.0039" y="746.1484">200 ambiguous_location with candidates</text></g><line style="stroke:#000000;stroke-width:1;stroke-dasharray:2,2;" x1="20" x2="1398.8672" y1="760.9219" y2="760.9219"/><text fill="#000000" font-family="'DejaVu Sans'" font-size="16" font-weight="700" lengthAdjust="spacing" textLength="104.4141" x="25" y="775.7734">[Not found]</text><g class="message" data-entity-1="part2" data-entity-2="part1" data-source-line="48" id="msg9"><polygon fill="#181818" points="99.1133,801.1719,89.1133,805.1719,99.1133,809.1719,95.1133,805.1719" style="stroke:#181818;stroke-width:1;stroke-linejoin:miter;stroke-miterlimit:10;"/><line style="stroke:#181818;stroke-width:1;stroke-dasharray:2,2;" x1="93.1133" x2="488.8867" y1="805.1719" y2="805.1719"/><text fill="#000000" font-family="'DejaVu Sans'" font-size="16" font-weight="700" lengthAdjust="spacing" textLength="36.8906" x="105.1133" y="799.3984">[09]</text><text fill="#000000" font-family="'DejaVu Sans'" font-size="16" lengthAdjust="spacing" textLength="187.1719" x="146.0039" y="799.3984">200 location_not_found</text></g><line style="stroke:#000000;stroke-width:1;stroke-dasharray:2,2;" x1="20" x2="1398.8672" y1="814.1719" y2="814.1719"/><text fill="#000000" font-family="'DejaVu Sans'" font-size="16" font-weight="700" lengthAdjust="spacing" textLength="219.7891" x="25" y="829.0234">[Geocoding unavailable]</text><g class="message" data-entity-1="part2" data-entity-2="part1" data-source-line="50" id="msg10"><polygon fill="#181818" points="99.1133,854.4219,89.1133,858.4219,99.1133,862.4219,95.1133,858.4219" style="stroke:#181818;stroke-width:1;stroke-linejoin:miter;stroke-miterlimit:10;"/><line style="stroke:#181818;stroke-width:1;stroke-dasharray:2,2;" x1="93.1133" x2="488.8867" y1="858.4219" y2="858.4219"/><text fill="#000000" font-family="'DejaVu Sans'" font-size="16" font-weight="700" lengthAdjust="spacing" textLength="36.8906" x="105.1133" y="852.6484">[10]</text><text fill="#000000" font-family="'DejaVu Sans'" font-size="16" lengthAdjust="spacing" textLength="229.0938" x="146.0039" y="852.6484">503 temporarily_unavailable</text></g><line style="stroke:#000000;stroke-width:1;stroke-dasharray:2,2;" x1="20" x2="1398.8672" y1="867.4219" y2="867.4219"/><text fill="#000000" font-family="'DejaVu Sans'" font-size="16" font-weight="700" lengthAdjust="spacing" textLength="96.5313" x="25" y="882.2734">[Resolved]</text><g class="message" data-entity-1="part2" data-entity-2="part2" data-source-line="52" id="msg11"><line style="stroke:#181818;stroke-width:1;" x1="489.8867" x2="531.8867" y1="911.6719" y2="911.6719"/><line style="stroke:#181818;stroke-width:1;" x1="531.8867" x2="531.8867" y1="911.6719" y2="924.6719"/><line style="stroke:#181818;stroke-width:1;" x1="490.8867" x2="531.8867" y1="924.6719" y2="924.6719"/><polygon fill="#181818" points="500.8867,920.6719,490.8867,924.6719,500.8867,928.6719,496.8867,924.6719" style="stroke:#181818;stroke-width:1;stroke-linejoin:miter;stroke-miterlimit:10;"/><text fill="#000000" font-family="'DejaVu Sans'" font-size="16" font-weight="700" lengthAdjust="spacing" textLength="36.8906" x="496.8867" y="905.8984">[11]</text><text fill="#000000" font-family="'DejaVu Sans'" font-size="16" lengthAdjust="spacing" textLength="426.0938" x="537.7773" y="905.8984">Start engine with location, defaults, and current time</text></g><path d="M371.7813,939.6719 L552.875,939.6719 L552.875,950.2969 L542.875,960.2969 L367.7813,960.2969 L367.7813,943.6719 A4,4 0 0 1 371.7813,939.6719" fill="#EEEEEE" style="stroke:#000000;stroke-width:1.5;"/><rect fill="none" height="248.625" rx="4" ry="4" style="stroke:#000000;stroke-width:1.5;" width="1031.0859" x="367.7813" y="939.6719"/><text fill="#000000" font-family="'DejaVu Sans'" font-size="16" font-weight="700" lengthAdjust="spacing" textLength="140.0938" x="382.7813" y="955.5234">Obtain forecast</text><g class="message" data-entity-1="part2" data-entity-2="part4" data-source-line="55" id="msg12"><polygon fill="#181818" points="1051.7813,980.9219,1061.7813,984.9219,1051.7813,988.9219,1055.7813,984.9219" style="stroke:#181818;stroke-width:1;stroke-linejoin:miter;stroke-miterlimit:10;"/><line style="stroke:#181818;stroke-width:1;" x1="489.8867" x2="1057.7813" y1="984.9219" y2="984.9219"/><text fill="#000000" font-family="'DejaVu Sans'" font-size="16" font-weight="700" lengthAdjust="spacing" textLength="36.8906" x="496.8867" y="979.1484">[12]</text><text fill="#000000" font-family="'DejaVu Sans'" font-size="16" lengthAdjust="spacing" textLength="250.0078" x="537.7773" y="979.1484">Forecast for the search horizon</text></g><path d="M943,999.9219 L1007.9297,999.9219 L1007.9297,1010.5469 L997.9297,1020.5469 L939,1020.5469 L939,1003.9219 A4,4 0 0 1 943,999.9219" fill="#EEEEEE" style="stroke:#000000;stroke-width:1.5;"/><rect fill="none" height="148.75" rx="4" ry="4" style="stroke:#000000;stroke-width:1.5;" width="459.8672" x="939" y="999.9219"/><text fill="#000000" font-family="'DejaVu Sans'" font-size="16" font-weight="700" lengthAdjust="spacing" textLength="23.9297" x="954" y="1015.7734">alt</text><text fill="#000000" font-family="'DejaVu Sans'" font-size="16" font-weight="700" lengthAdjust="spacing" textLength="196.0547" x="1022.9297" y="1016.7734">[Weather cache miss]</text><g class="message" data-entity-1="part4" data-entity-2="part4" data-source-line="57" id="msg13"><polygon fill="#181818" points="1396.8672,1044.7969,1406.8672,1048.7969,1396.8672,1052.7969,1400.8672,1048.7969" style="stroke:#181818;stroke-width:1;stroke-linejoin:miter;stroke-miterlimit:10;"/><line style="stroke:#181818;stroke-width:1;" x1="1063.7813" x2="1402.8672" y1="1048.7969" y2="1048.7969"/><text fill="#000000" font-family="'DejaVu Sans'" font-size="16" font-weight="700" lengthAdjust="spacing" textLength="36.8906" x="1070.7813" y="1043.0234">[13]</text><text fill="#000000" font-family="'DejaVu Sans'" font-size="16" lengthAdjust="spacing" textLength="273.1953" x="1111.6719" y="1043.0234">Fetch Open-Meteo hourly forecast</text></g><g class="message" data-entity-1="part4" data-entity-2="part4" data-source-line="58" id="msg14"><polygon fill="#181818" points="1074.7813,1077.4219,1064.7813,1081.4219,1074.7813,1085.4219,1070.7813,1081.4219" style="stroke:#181818;stroke-width:1;stroke-linejoin:miter;stroke-miterlimit:10;"/><line style="stroke:#181818;stroke-width:1;" x1="1068.7813" x2="1407.8672" y1="1081.4219" y2="1081.4219"/><text fill="#000000" font-family="'DejaVu Sans'" font-size="16" font-weight="700" lengthAdjust="spacing" textLength="36.8906" x="1080.7813" y="1075.6484">[14]</text><text fill="#000000" font-family="'DejaVu Sans'" font-size="16" lengthAdjust="spacing" textLength="187.6641" x="1121.6719" y="1075.6484">Forecast or unavailable</text></g><line style="stroke:#000000;stroke-width:1;stroke-dasharray:2,2;" x1="939" x2="1398.8672" y1="1090.4219" y2="1090.4219"/><text fill="#000000" font-family="'DejaVu Sans'" font-size="16" font-weight="700" lengthAdjust="spacing" textLength="179.375" x="944" y="1105.2734">[Weather cache hit]</text><path d="M949,1119.0469 L949,1139.0469 A4,4 0 0 0 953,1143.0469 L1172,1143.0469 A4,4 0 0 0 1176,1139.0469 L1176,1125.0469 L1166,1115.0469 L953,1115.0469 A4,4 0 0 0 949,1119.0469" fill="#FEFFDD" style="stroke:#181818;stroke-width:0.5;"/><path d="M1166,1115.0469 L1166,1123.0469 A2,2 0 0 0 1168,1125.0469 L1176,1125.0469 L1166,1115.0469" fill="#FEFFDD" style="stroke:#181818;stroke-width:0.5;"/><text fill="#000000" font-family="'DejaVu Sans'" font-size="16" lengthAdjust="spacing" textLength="206.6641" x="955" y="1134.8984">No outbound weather call</text><g class="message" data-entity-1="part4" data-entity-2="part2" data-source-line="62" id="msg15"><polygon fill="#181818" points="500.8867,1176.2969,490.8867,1180.2969,500.8867,1184.2969,496.8867,1180.2969" style="stroke:#181818;stroke-width:1;stroke-linejoin:miter;stroke-miterlimit:10;"/><line style="stroke:#181818;stroke-width:1;stroke-dasharray:2,2;" x1="494.8867" x2="1062.7813" y1="1180.2969" y2="1180.2969"/><text fill="#000000" font-family="'DejaVu Sans'" font-size="16" font-weight="700" lengthAdjust="spacing" textLength="36.8906" x="506.8867" y="1174.5234">[15]</text><text fill="#000000" font-family="'DejaVu Sans'" font-size="16" lengthAdjust="spacing" textLength="187.6641" x="547.7773" y="1174.5234">Forecast or unavailable</text></g><path d="M34,1202.2969 L98.9297,1202.2969 L98.9297,1212.9219 L88.9297,1222.9219 L30,1222.9219 L30,1206.2969 A4,4 0 0 1 34,1202.2969" fill="#EEEEEE" style="stroke:#000000;stroke-width:1.5;"/><rect fill="none" height="155.75" rx="4" ry="4" style="stroke:#000000;stroke-width:1.5;" width="885.0039" x="30" y="1202.2969"/><text fill="#000000" font-family="'DejaVu Sans'" font-size="16" font-weight="700" lengthAdjust="spacing" textLength="23.9297" x="45" y="1218.1484">alt</text><text fill="#000000" font-family="'DejaVu Sans'" font-size="16" font-weight="700" lengthAdjust="spacing" textLength="201.6328" x="113.9297" y="1219.1484">[Weather unavailable]</text><g class="message" data-entity-1="part2" data-entity-2="part1" data-source-line="66" id="msg16"><polygon fill="#181818" points="99.1133,1247.1719,89.1133,1251.1719,99.1133,1255.1719,95.1133,1251.1719" style="stroke:#181818;stroke-width:1;stroke-linejoin:miter;stroke-miterlimit:10;"/><line style="stroke:#181818;stroke-width:1;stroke-dasharray:2,2;" x1="93.1133" x2="488.8867" y1="1251.1719" y2="1251.1719"/><text fill="#000000" font-family="'DejaVu Sans'" font-size="16" font-weight="700" lengthAdjust="spacing" textLength="36.8906" x="105.1133" y="1245.3984">[16]</text><text fill="#000000" font-family="'DejaVu Sans'" font-size="16" lengthAdjust="spacing" textLength="229.0938" x="146.0039" y="1245.3984">503 temporarily_unavailable</text></g><line style="stroke:#000000;stroke-width:1;stroke-dasharray:2,2;" x1="30" x2="915.0039" y1="1260.1719" y2="1260.1719"/><text fill="#000000" font-family="'DejaVu Sans'" font-size="16" font-weight="700" lengthAdjust="spacing" textLength="179.8906" x="35" y="1275.0234">[Forecast available]</text><g class="message" data-entity-1="part2" data-entity-2="part2" data-source-line="68" id="msg17"><line style="stroke:#181818;stroke-width:1;" x1="489.8867" x2="531.8867" y1="1304.4219" y2="1304.4219"/><line style="stroke:#181818;stroke-width:1;" x1="531.8867" x2="531.8867" y1="1304.4219" y2="1317.4219"/><line style="stroke:#181818;stroke-width:1;" x1="490.8867" x2="531.8867" y1="1317.4219" y2="1317.4219"/><polygon fill="#181818" points="500.8867,1313.4219,490.8867,1317.4219,500.8867,1321.4219,496.8867,1317.4219" style="stroke:#181818;stroke-width:1;stroke-linejoin:miter;stroke-miterlimit:10;"/><text fill="#000000" font-family="'DejaVu Sans'" font-size="16" font-weight="700" lengthAdjust="spacing" textLength="36.8906" x="496.8867" y="1298.6484">[17]</text><text fill="#000000" font-family="'DejaVu Sans'" font-size="16" lengthAdjust="spacing" textLength="365.2266" x="537.7773" y="1298.6484">Generate, adjust, reject, score, sort, and limit</text></g><g class="message" data-entity-1="part2" data-entity-2="part1" data-source-line="69" id="msg18"><polygon fill="#181818" points="99.1133,1346.0469,89.1133,1350.0469,99.1133,1354.0469,95.1133,1350.0469" style="stroke:#181818;stroke-width:1;stroke-linejoin:miter;stroke-miterlimit:10;"/><line style="stroke:#181818;stroke-width:1;stroke-dasharray:2,2;" x1="93.1133" x2="488.8867" y1="1350.0469" y2="1350.0469"/><text fill="#000000" font-family="'DejaVu Sans'" font-size="16" font-weight="700" lengthAdjust="spacing" textLength="36.8906" x="105.1133" y="1344.2734">[18]</text><text fill="#000000" font-family="'DejaVu Sans'" font-size="16" lengthAdjust="spacing" textLength="336.8828" x="146.0039" y="1344.2734">200 ok with opportunities, possibly empty</text></g><?plantuml-src bLPDRzj83BtFho1yjhTkjxjeWo90acxQ09iqs0JjeIsCaKHRaqX3TJxiEBz-EIDfF7Qo0VPWozQGV8_a8oLxhtGdZMoXmgNqZJidxQvaYp3vY7VoguSRgUr4sEViRjGZmki_iqDRouesIgzWAHkBsOaXhwkIZ4O3xt8F_ELHbtY9rieLdZHgfQ71fSjzqNQaxMXpYWrjJeoX3JZZSv1JUhYMLHNmtubQLGXB8bVGWn1EkGRXb9qiC_ZqrosyafrwHLr7ndcjd48hf7UaVLkmnMkOV2YEly_dFoT2oDAHWSddszjhA6NJe9c0j70MVmh6TgfKdTGE9cTS5qFX_fHpawQi-MBMgiJf3orr1Jl4BQ1UAOqnrarl92hfP24jr_yJKaaXbn-wb6NTc_rDfNIAT6Rt3QMhqUHMmoqXD3a4MdC-FTTfmW7uJDPXDPDDLyjGOlAcH91Lgwnb131UMoXmIGR1rSgcLh5lIAILMtPptcXu--RzpXAXJ3K0TbDwJVTO_IQGdG8X8NeoC3iUwHp5ZcoKg-4NSAcR8SsBIWmMUyPVPQEu00ZumArfja0QeGWAmuhnEk-uPus3ov2ANaq3X-0o3R4BOfHeP3cJ59xZzxIEuEryFdeiJ4ZQEe4ivnvt001OiQOx-8ShrwmnKUQ3BEfnwjWHN95fES0ZS-IOPfid2XSVesDWVMrepTeriqAMN3Y8VONGbcW2AII7_tcK2BYQ-Qng-DAXdbsYGuBLAA53nm-pqT4dpZ73iuXLApTux0IKvm7aNIpt3Y7EnIxEHL--aA8cFUk6b9xa-np2S00fCrOqM_4i1yGW4l8k6KczOvDW4XccCwfk-2FsAvZBQi1ZcSYsK2jFtavto54yNikrL8qicX0mX1Dzqqv6Z_t-PwfwmwfASHUf457q9GzKL7HmZmMy6c5VZ3T6MJ3BnMWU_TFsEA3yVAm_vh-3mvOtapIgsIuEqWm1n-8SwZjLxyRn7XnMMf_Lo6uwFZIud65pbDuOv6NfL8iYnkj7wKlXfD8GzaWfxTZY36lOQqTmFfW4sxXoXbLRar6FIK6XBuFBqo62T1Idw1nTkJSxB3B3c-M0pCuhZb3YyKGQQHBs2UmcArT-oYiVhKropBKi3hZd7NY9pI3L_Q8yfVp_nJ6acR3_CsA-x95V0rZjB8VgpbitvGV97PPyjVoAmBSjFo9xhJIgLUu5Sc4AwBxNszx3V0eTyVOlk8VCtMsp-G_VuVCl?></g></svg>