<svg xmlns="http://www.w3.org/2000/svg" xmlns:xlink="http://www.w3.org/1999/xlink" contentStyleType="text/css" data-diagram-type="SEQUENCE" height="633px" preserveAspectRatio="none" style="width:1204px;height:633px;background:#FFFFFF;" version="1.1" viewBox="0 0 1204 633" width="1204px" zoomAndPan="magnify"><?plantuml 1.2026.6?><defs/><g><g class="title" data-source-line="9"><text fill="#000000" font-family="'DejaVu Sans'" font-size="14" font-weight="700" lengthAdjust="spacing" textLength="298.334" x="449.7601" y="27.9951">Direct POST /api/opportunities/search</text></g><rect fill="none" height="329.9922" rx="4" ry="4" style="stroke:#000000;stroke-width:1.5;" width="1178.8542" x="10" y="285.0625"/><rect fill="none" height="211.6875" rx="4" ry="4" style="stroke:#000000;stroke-width:1.5;" width="1158.8542" x="20" y="396.3672"/><g class="participant-lifeline" data-entity-uid="part1" data-qualified-name="Caller" data-source-line="12" id="part1-lifeline"><g><title>Prototype or test caller</title><rect fill="#000000" fill-opacity="0.00000" height="512.2969" width="8" x="115.2903" y="119.7578"/><line style="stroke:#181818;stroke-width:0.5;stroke-dasharray:5,5;" x1="119" x2="119" y1="119.7578" y2="632.0547"/></g></g><g class="participant-lifeline" data-entity-uid="part2" data-qualified-name="API" data-source-line="13" id="part2-lifeline"><g><title>Controller</title><rect fill="#000000" fill-opacity="0.00000" height="512.2969" width="8" x="366.5032" y="119.7578"/><line style="stroke:#181818;stroke-width:0.5;stroke-dasharray:5,5;" x1="370.4463" x2="370.4463" y1="119.7578" y2="632.0547"/></g></g><g class="participant-lifeline" data-entity-uid="part3" data-qualified-name="Engine" data-source-line="14" id="part3-lifeline"><g><title>Opportunity engine</title><rect fill="#000000" fill-opacity="0.00000" height="512.2969" width="8" x="691.886" y="119.7578"/><line style="stroke:#181818;stroke-width:0.5;stroke-dasharray:5,5;" x1="694.9521" x2="694.9521" y1="119.7578" y2="632.0547"/></g></g><g class="participant participant-head" data-entity-uid="part1" data-qualified-name="Caller" data-source-line="12" id="part1-head"><text fill="#000000" font-family="'DejaVu Sans'" font-size="15" lengthAdjust="spacing" textLength="172.5806" x="30" y="116.2202">Prototype or test caller</text><ellipse cx="119.2903" cy="50.7969" fill="#E2E2F0" rx="8" ry="8" style="stroke:#181818;stroke-width:0.5;"/><path d="M119.2903,58.7969 L119.2903,85.7969 M106.2903,66.7969 L132.2903,66.7969 M119.2903,85.7969 L106.2903,100.7969 M119.2903,85.7969 L132.2903,100.7969" fill="none" style="stroke:#181818;stroke-width:0.5;"/></g><g class="participant participant-head" data-entity-uid="part2" data-qualified-name="API" data-source-line="13" id="part2-head"><rect fill="#E2E2F0" height="31.4609" rx="4" ry="4" style="stroke:#181818;stroke-width:0.5;" width="88.1138" x="326.4463" y="87.2969"/><text fill="#000000" font-family="'DejaVu Sans'" font-size="15" lengthAdjust="spacing" textLength="74.1138" x="333.4463" y="108.2202">Controller</text></g><g class="participant participant-head" data-entity-uid="part3" data-qualified-name="Engine" data-source-line="14" id="part3-head"><rect fill="#E2E2F0" height="48.9219" rx="4" ry="4" style="stroke:#181818;stroke-width:0.5;" width="165.8677" x="612.9521" y="69.8359"/><text fill="#000000" font-family="'DejaVu Sans'" font-size="15" lengthAdjust="spacing" textLength="145.9424" x="622.9148" y="90.7593">Opportunity engine</text><text fill="#000000" font-family="'DejaVu Sans'" font-size="15" lengthAdjust="spacing" textLength="151.8677" x="619.9521" y="108.2202">and scoring pipeline</text></g><path d="M35,138.7578 L35,192.7578 A4,4 0 0 0 39,196.7578 L774,196.7578 A4,4 0 0 0 778,192.7578 L778,144.7578 L768,134.7578 L39,134.7578 A4,4 0 0 0 35,138.7578" fill="#FEFFDD" style="stroke:#181818;stroke-width:0.5;"/><path d="M768,134.7578 L768,142.7578 A2,2 0 0 0 770,144.7578 L778,144.7578 L768,134.7578" fill="#FEFFDD" style="stroke:#181818;stroke-width:0.5;"/><text fill="#000000" font-family="'DejaVu Sans'" font-size="15" lengthAdjust="spacing" textLength="385.4443" x="198.1338" y="153.6812">The browser does not use this ordinary-mode path.</text><text fill="#000000" font-family="'DejaVu Sans'" font-size="15" lengthAdjust="spacing" textLength="408.5522" x="198.1338" y="171.1421">It accepts only the Prague fixture and fixture weather;</text><text fill="#000000" font-family="'DejaVu Sans'" font-size="15" lengthAdjust="spacing" textLength="357.4878" x="198.1338" y="188.603">no live geocoding or weather provider is called.</text><g class="message" data-entity-1="part1" data-entity-2="part2" data-source-line="22" id="msg1"><polygon fill="#181818" points="358.5032,221.6016,368.5032,225.6016,358.5032,229.6016,362.5032,225.6016" style="stroke:#181818;stroke-width:1;stroke-linejoin:miter;stroke-miterlimit:10;"/><line style="stroke:#181818;stroke-width:1;" x1="119.2903" x2="364.5032" y1="225.6016" y2="225.6016"/><text fill="#000000" font-family="'DejaVu Sans'" font-size="15" font-weight="700" lengthAdjust="spacing" textLength="34.585" x="126.2903" y="220.064">[01]</text><text fill="#000000" font-family="'DejaVu Sans'" font-size="15" lengthAdjust="spacing" textLength="188.6279" x="164.8752" y="220.064">POST direct scoring JSON</text></g><g class="message" data-entity-1="part2" data-entity-2="part2" data-source-line="23" id="msg2"><line style="stroke:#181818;stroke-width:1;" x1="370.5032" x2="412.5032" y1="257.0625" y2="257.0625"/><line style="stroke:#181818;stroke-width:1;" x1="412.5032" x2="412.5032" y1="257.0625" y2="270.0625"/><line style="stroke:#181818;stroke-width:1;" x1="371.5032" x2="412.5032" y1="270.0625" y2="270.0625"/><polygon fill="#181818" points="381.5032,266.0625,371.5032,270.0625,381.5032,274.0625,377.5032,270.0625" style="stroke:#181818;stroke-width:1;stroke-linejoin:miter;stroke-miterlimit:10;"/><text fill="#000000" font-family="'DejaVu Sans'" font-size="15" font-weight="700" lengthAdjust="spacing" textLength="34.585" x="377.5032" y="251.5249">[02]</text><text fill="#000000" font-family="'DejaVu Sans'" font-size="15" lengthAdjust="spacing" textLength="272.7979" x="416.0881" y="251.5249">Parse and validate the request body</text></g><path d="M14,285.0625 L77.4341,285.0625 L77.4341,294.5234 L67.4341,304.5234 L10,304.5234 L10,289.0625 A4,4 0 0 1 14,285.0625" fill="#EEEEEE" style="stroke:#000000;stroke-width:1.5;"/><rect fill="none" height="329.9922" rx="4" ry="4" style="stroke:#000000;stroke-width:1.5;" width="1178.8542" x="10" y="285.0625"/><text fill="#000000" font-family="'DejaVu Sans'" font-size="15" font-weight="700" lengthAdjust="spacing" textLength="22.4341" x="25" y="299.9858">alt</text><text fill="#000000" font-family="'DejaVu Sans'" font-size="15" font-weight="700" lengthAdjust="spacing" textLength="352.0898" x="92.4341" y="300.9858">[Malformed, incomplete, or invalid fields]</text><g class="message" data-entity-1="part2" data-entity-2="part1" data-source-line="26" id="msg3"><polygon fill="#181818" points="130.2903,326.4453,120.2903,330.4453,130.2903,334.4453,126.2903,330.4453" style="stroke:#181818;stroke-width:1;stroke-linejoin:miter;stroke-miterlimit:10;"/><line style="stroke:#181818;stroke-width:1;stroke-dasharray:2,2;" x1="124.2903" x2="369.5032" y1="330.4453" y2="330.4453"/><text fill="#000000" font-family="'DejaVu Sans'" font-size="15" font-weight="700" lengthAdjust="spacing" textLength="34.585" x="136.2903" y="324.9077">[03]</text><text fill="#000000" font-family="'DejaVu Sans'" font-size="15" lengthAdjust="spacing" textLength="147.8467" x="174.8752" y="324.9077">400 invalid_request</text></g><line style="stroke:#000000;stroke-width:1;stroke-dasharray:2,2;" x1="10" x2="1188.8542" y1="339.4453" y2="339.4453"/><text fill="#000000" font-family="'DejaVu Sans'" font-size="15" font-weight="700" lengthAdjust="spacing" textLength="182.8052" x="15" y="353.3687">[Valid request shape]</text><g class="message" data-entity-1="part2" data-entity-2="part3" data-source-line="28" id="msg4"><polygon fill="#181818" points="683.886,377.3672,693.886,381.3672,683.886,385.3672,687.886,381.3672" style="stroke:#181818;stroke-width:1;stroke-linejoin:miter;stroke-miterlimit:10;"/><line style="stroke:#181818;stroke-width:1;" x1="370.5032" x2="689.886" y1="381.3672" y2="381.3672"/><text fill="#000000" font-family="'DejaVu Sans'" font-size="15" font-weight="700" lengthAdjust="spacing" textLength="34.585" x="377.5032" y="375.8296">[04]</text><text fill="#000000" font-family="'DejaVu Sans'" font-size="15" lengthAdjust="spacing" textLength="205.8398" x="416.0881" y="375.8296">Evaluate prototype request</text></g><path d="M24,396.3672 L87.4341,396.3672 L87.4341,405.8281 L77.4341,415.8281 L20,415.8281 L20,400.3672 A4,4 0 0 1 24,396.3672" fill="#EEEEEE" style="stroke:#000000;stroke-width:1.5;"/><rect fill="none" height="211.6875" rx="4" ry="4" style="stroke:#000000;stroke-width:1.5;" width="1158.8542" x="20" y="396.3672"/><text fill="#000000" font-family="'DejaVu Sans'" font-size="15" font-weight="700" lengthAdjust="spacing" textLength="22.4341" x="35" y="411.2905">alt</text><text fill="#000000" font-family="'DejaVu Sans'" font-size="15" font-weight="700" lengthAdjust="spacing" textLength="371.228" x="102.4341" y="412.2905">[Unsupported fixture or out-of-range value]</text><g class="message" data-entity-1="part3" data-entity-2="part2" data-source-line="30" id="msg5"><polygon fill="#181818" points="381.5032,437.75,371.5032,441.75,381.5032,445.75,377.5032,441.75" style="stroke:#181818;stroke-width:1;stroke-linejoin:miter;stroke-miterlimit:10;"/><line style="stroke:#181818;stroke-width:1;stroke-dasharray:2,2;" x1="375.5032" x2="694.886" y1="441.75" y2="441.75"/><text fill="#000000" font-family="'DejaVu Sans'" font-size="15" font-weight="700" lengthAdjust="spacing" textLength="34.585" x="387.5032" y="436.2124">[05]</text><text fill="#000000" font-family="'DejaVu Sans'" font-size="15" lengthAdjust="spacing" textLength="111.9727" x="426.0881" y="436.2124">Invalid request</text></g><g class="message" data-entity-1="part2" data-entity-2="part1" data-source-line="31" id="msg6"><polygon fill="#181818" points="130.2903,469.2109,120.2903,473.2109,130.2903,477.2109,126.2903,473.2109" style="stroke:#181818;stroke-width:1;stroke-linejoin:miter;stroke-miterlimit:10;"/><line style="stroke:#181818;stroke-width:1;stroke-dasharray:2,2;" x1="124.2903" x2="369.5032" y1="473.2109" y2="473.2109"/><text fill="#000000" font-family="'DejaVu Sans'" font-size="15" font-weight="700" lengthAdjust="spacing" textLength="34.585" x="136.2903" y="467.6733">[06]</text><text fill="#000000" font-family="'DejaVu Sans'" font-size="15" lengthAdjust="spacing" textLength="147.8467" x="174.8752" y="467.6733">400 invalid_request</text></g><line style="stroke:#000000;stroke-width:1;stroke-dasharray:2,2;" x1="20" x2="1178.8542" y1="482.2109" y2="482.2109"/><text fill="#000000" font-family="'DejaVu Sans'" font-size="15" font-weight="700" lengthAdjust="spacing" textLength="192.2681" x="25" y="496.1343">[Valid Prague request]</text><g class="message" data-entity-1="part3" data-entity-2="part3" data-source-line="33" id="msg7"><line style="stroke:#181818;stroke-width:1;" x1="695.886" x2="737.886" y1="524.1328" y2="524.1328"/><line style="stroke:#181818;stroke-width:1;" x1="737.886" x2="737.886" y1="524.1328" y2="537.1328"/><line style="stroke:#181818;stroke-width:1;" x1="696.886" x2="737.886" y1="537.1328" y2="537.1328"/><polygon fill="#181818" points="706.886,533.1328,696.886,537.1328,706.886,541.1328,702.886,537.1328" style="stroke:#181818;stroke-width:1;stroke-linejoin:miter;stroke-miterlimit:10;"/><text fill="#000000" font-family="'DejaVu Sans'" font-size="15" font-weight="700" lengthAdjust="spacing" textLength="34.585" x="702.886" y="518.5952">[07]</text><text fill="#000000" font-family="'DejaVu Sans'" font-size="15" lengthAdjust="spacing" textLength="425.3833" x="741.4709" y="518.5952">Generate and score with caller horizon, ceiling, and limit</text></g><g class="message" data-entity-1="part3" data-entity-2="part2" data-source-line="34" id="msg8"><polygon fill="#181818" points="381.5032,564.5938,371.5032,568.5938,381.5032,572.5938,377.5032,568.5938" style="stroke:#181818;stroke-width:1;stroke-linejoin:miter;stroke-miterlimit:10;"/><line style="stroke:#181818;stroke-width:1;stroke-dasharray:2,2;" x1="375.5032" x2="694.886" y1="568.5938" y2="568.5938"/><text fill="#000000" font-family="'DejaVu Sans'" font-size="15" font-weight="700" lengthAdjust="spacing" textLength="34.585" x="387.5032" y="563.0562">[08]</text><text fill="#000000" font-family="'DejaVu Sans'" font-size="15" lengthAdjust="spacing" textLength="137.5488" x="426.0881" y="563.0562">Opportunity result</text></g><g class="message" data-entity-1="part2" data-entity-2="part1" data-source-line="35" id="msg9"><polygon fill="#181818" points="130.2903,596.0547,120.2903,600.0547,130.2903,604.0547,126.2903,600.0547" style="stroke:#181818;stroke-width:1;stroke-linejoin:miter;stroke-miterlimit:10;"/><line style="stroke:#181818;stroke-width:1;stroke-dasharray:2,2;" x1="124.2903" x2="369.5032" y1="600.0547" y2="600.0547"/><text fill="#000000" font-family="'DejaVu Sans'" font-size="15" font-weight="700" lengthAdjust="spacing" textLength="34.585" x="136.2903" y="594.5171">[09]</text><text fill="#000000" font-family="'DejaVu Sans'" font-size="15" lengthAdjust="spacing" textLength="168.3179" x="174.8752" y="594.5171">200 opportunity result</text></g><?plantuml-src ZPJ1Rjim38RlUWh2vwHDXmqOkY50rtP31xGDaAwNRHWKYx6roQ8cKKdJfo_js8q7vB2R7VuaF_waa_vO7tJK3HXSw-puCtc-qmr2SOM_zME6fVQfKEcORccV4SxUZOAfreQsrbUmrYxXA18fUrDIz1ZX_JW3_sRq9TvYIhh22sSh3mxNFCx55CYdGVC97MqlOgGjSCoeQciGraIyeYUbsB93kB8HIuR5_V81JdMmfnG2HSxUiiLqcb37ibOwC_dSh8Jf38gFg_dtsUndePGkcI8KYqXCl0i8yiQO64hj7CO2T8BBxb498TlI1kqPYain9TAhv69nys_y_XLY1-Whw_67rzv04cDQqu8DwEJNBlkw4oZbYGLW8upxbfCX0l1G8wp4XoH1GvX0j90J0jSs2RInNiVTj24nA6YkJoJdXa6N9GOMWNSxaI8iegwoU6YVE4U45cbutgBaOVmWcPx0sGr2XLIIQNd5bZuE8T96zX116dSkcHE5KgUbLsfF3jDvwydvVYrclw9Xzg_B-pibqOD8nxHdsMXdZMRiM6DxCBAA5PcTRCent6gtfjYWcO3r9JN18UEaXRE-IvLXq9aa8tJrfS6UvnpUpcQ3w5TVMA4SBZnsUKClEUk0G_gyz_yShYKnjrpXzL268W0jsJUVShToF1WgM9HvIkjfrBx2ThZSreQ-RCVN6N3Jqnzg_jy00ACH-jMEQmnz3eDyGVaisq66OvIzMwxxSuTQDlHCVW8bMZdFQjBfd6qi7mKVdxbyk_9lSPJzZR3JCQdSJNixwWK0?></g></svg>