<svg xmlns="http://www.w3.org/2000/svg" xmlns:xlink="http://www.w3.org/1999/xlink" contentStyleType="text/css" data-diagram-type="ACTIVITY" height="1258px" preserveAspectRatio="none" style="width:1238px;height:1258px;background:#FFFFFF;" version="1.1" viewBox="0 0 1238 1258" width="1238px" zoomAndPan="magnify"><?plantuml 1.2026.6?><defs/><g><g class="title" data-source-line="16"><text fill="#000000" font-family="'DejaVu Sans'" font-size="14" font-weight="700" lengthAdjust="spacing" textLength="316.3535" x="460.1609" y="32.9951">Implemented V0 opportunity evaluation</text></g><ellipse cx="715.4376" cy="62.2969" fill="#455A64" rx="10" ry="10" style="stroke:#222222;stroke-width:1;"/><rect fill="#F8FAFC" height="54.9219" rx="4" ry="4" style="stroke:#455A64;stroke-width:0.5;" width="236.2549" x="597.3102" y="92.2969"/><text fill="#000000" font-family="'DejaVu Sans'" font-size="15" lengthAdjust="spacing" textLength="211.4795" x="607.3102" y="116.2202">Resolved or fixture location,</text><text fill="#000000" font-family="'DejaVu Sans'" font-size="15" lengthAdjust="spacing" textLength="216.2549" x="607.3102" y="133.6812">request, and weather source</text><rect fill="#F8FAFC" height="54.9219" rx="4" ry="4" style="stroke:#455A64;stroke-width:0.5;" width="248.0835" x="591.3959" y="167.2188"/><text fill="#000000" font-family="'DejaVu Sans'" font-size="15" lengthAdjust="spacing" textLength="227.3657" x="601.3959" y="191.1421">Generate natural visible-Moon</text><text fill="#000000" font-family="'DejaVu Sans'" font-size="15" lengthAdjust="spacing" textLength="228.0835" x="601.3959" y="208.603">pass windows from ephemeris</text><polygon fill="#FFF8E1" points="621.2665,242.1406,809.6088,242.1406,821.6088,254.1406,809.6088,266.1406,621.2665,266.1406,609.2665,254.1406,621.2665,242.1406" style="stroke:#8D6E63;stroke-width:0.5;stroke-linejoin:miter;stroke-miterlimit:10;"/><text fill="#000000" font-family="'DejaVu Sans'" font-size="15" lengthAdjust="spacing" textLength="188.3423" x="621.2665" y="259.3335">Any generated windows?</text><text fill="#000000" font-family="'DejaVu Sans'" font-size="15" lengthAdjust="spacing" textLength="25.9204" x="583.3461" y="250.603">yes</text><text fill="#000000" font-family="'DejaVu Sans'" font-size="15" lengthAdjust="spacing" textLength="18.6841" x="821.6088" y="250.603">no</text><rect fill="#F8FAFC" height="54.9219" rx="4" ry="4" style="stroke:#455A64;stroke-width:0.5;" width="227.1948" x="383.2424" y="335.564"/><text fill="#000000" font-family="'DejaVu Sans'" font-size="15" lengthAdjust="spacing" textLength="55.3784" x="393.2424" y="359.4873">Choose</text><text fill="#000000" font-family="'DejaVu Sans'" font-size="15" font-weight="700" lengthAdjust="spacing" textLength="107.0435" x="453.3889" y="359.4873">suggestedAt</text><text fill="#000000" font-family="'DejaVu Sans'" font-size="15" lengthAdjust="spacing" textLength="35.2368" x="565.2004" y="359.4873">from</text><text fill="#000000" font-family="'DejaVu Sans'" font-size="15" lengthAdjust="spacing" textLength="206.0376" x="393.2424" y="376.9482">Moon-altitude + sunlight fit</text><polygon fill="#FFF8E1" points="444.7866,410.4858,548.8931,410.4858,560.8931,422.4858,548.8931,434.4858,444.7866,434.4858,432.7866,422.4858,444.7866,410.4858" style="stroke:#8D6E63;stroke-width:0.5;stroke-linejoin:miter;stroke-miterlimit:10;"/><text fill="#000000" font-family="'DejaVu Sans'" font-size="15" lengthAdjust="spacing" textLength="104.1064" x="444.7866" y="427.6787">Browser GET?</text><text fill="#000000" font-family="'DejaVu Sans'" font-size="15" lengthAdjust="spacing" textLength="25.9204" x="406.8662" y="418.9482">yes</text><text fill="#000000" font-family="'DejaVu Sans'" font-size="15" lengthAdjust="spacing" textLength="87.5171" x="560.8931" y="418.9482">direct POST</text><rect fill="#F8FAFC" height="54.9219" rx="4" ry="4" style="stroke:#455A64;stroke-width:0.5;" width="285.1221" x="200.1833" y="444.4858"/><text fill="#000000" font-family="'DejaVu Sans'" font-size="15" lengthAdjust="spacing" textLength="265.1221" x="210.1833" y="468.4092">Discard an ended window, or move</text><text fill="#000000" font-family="'DejaVu Sans'" font-size="15" font-weight="700" lengthAdjust="spacing" textLength="107.0435" x="210.1833" y="485.8701">suggestedAt</text><text fill="#000000" font-family="'DejaVu Sans'" font-size="15" lengthAdjust="spacing" textLength="110.2954" x="321.9949" y="485.8701">to now or later</text><rect fill="#F8FAFC" height="37.4609" rx="4" ry="4" style="stroke:#455A64;stroke-width:0.5;" width="291.2598" x="505.3054" y="444.4858"/><text fill="#000000" font-family="'DejaVu Sans'" font-size="15" lengthAdjust="spacing" textLength="271.2598" x="515.3054" y="468.4092">Keep the fixture window unchanged</text><polygon fill="#FFF8E1" points="496.8398,505.4077,508.8398,517.4077,496.8398,529.4077,484.8398,517.4077,496.8398,505.4077" style="stroke:#8D6E63;stroke-width:0.5;stroke-linejoin:miter;stroke-miterlimit:10;"/><polygon fill="#FFF8E1" points="429.2922,549.4077,564.3875,549.4077,576.3875,561.4077,564.3875,573.4077,429.2922,573.4077,417.2922,561.4077,429.2922,549.4077" style="stroke:#8D6E63;stroke-width:0.5;stroke-linejoin:miter;stroke-miterlimit:10;"/><text fill="#000000" font-family="'DejaVu Sans'" font-size="15" lengthAdjust="spacing" textLength="135.0952" x="429.2922" y="566.6006">Window retained?</text><text fill="#000000" font-family="'DejaVu Sans'" font-size="15" lengthAdjust="spacing" textLength="25.9204" x="391.3718" y="557.8701">yes</text><text fill="#000000" font-family="'DejaVu Sans'" font-size="15" lengthAdjust="spacing" textLength="18.6841" x="576.3875" y="557.8701">no</text><polygon fill="#FFF8E1" points="172.4194,583.4077,412.5366,583.4077,424.5366,595.4077,412.5366,607.4077,172.4194,607.4077,160.4194,595.4077,172.4194,583.4077" style="stroke:#8D6E63;stroke-width:0.5;stroke-linejoin:miter;stroke-miterlimit:10;"/><text fill="#000000" font-family="'DejaVu Sans'" font-size="15" lengthAdjust="spacing" textLength="240.1172" x="172.4194" y="600.6006">Thin crescent near conjunction?</text><text fill="#000000" font-family="'DejaVu Sans'" font-size="15" lengthAdjust="spacing" textLength="25.9204" x="134.499" y="591.8701">yes</text><text fill="#000000" font-family="'DejaVu Sans'" font-size="15" lengthAdjust="spacing" textLength="18.6841" x="424.5366" y="591.8701">no</text><rect fill="#F8FAFC" height="37.4609" rx="4" ry="4" style="stroke:#455A64;stroke-width:0.5;" width="214.8389" x="43" y="617.4077"/><text fill="#000000" font-family="'DejaVu Sans'" font-size="15" lengthAdjust="spacing" textLength="194.8389" x="53" y="641.3311">Record a rejected window</text><rect fill="#F8FAFC" height="54.9219" rx="4" ry="4" style="stroke:#455A64;stroke-width:0.5;" width="274.0039" x="297.5347" y="617.4077"/><text fill="#000000" font-family="'DejaVu Sans'" font-size="15" lengthAdjust="spacing" textLength="132.356" x="307.5347" y="641.3311">Select weather at</text><text fill="#000000" font-family="'DejaVu Sans'" font-size="15" font-weight="700" lengthAdjust="spacing" textLength="107.0435" x="444.6587" y="641.3311">suggestedAt</text><text fill="#000000" font-family="'DejaVu Sans'" font-size="15" lengthAdjust="spacing" textLength="5.0537" x="551.7021" y="641.3311">:</text><text fill="#000000" font-family="'DejaVu Sans'" font-size="15" lengthAdjust="spacing" textLength="254.0039" x="307.5347" y="658.792">hourly GET record or POST fixture</text><rect fill="#F8FAFC" height="72.3828" rx="4" ry="4" style="stroke:#455A64;stroke-width:0.5;" width="271.8652" x="298.604" y="692.3296"/><text fill="#000000" font-family="'DejaVu Sans'" font-size="15" lengthAdjust="spacing" textLength="177.1582" x="308.604" y="716.2529">Score five components:</text><text fill="#000000" font-family="'DejaVu Sans'" font-size="15" lengthAdjust="spacing" textLength="229.6802" x="308.604" y="733.7139">altitude, sunlight, illumination,</text><text fill="#000000" font-family="'DejaVu Sans'" font-size="15" lengthAdjust="spacing" textLength="251.8652" x="308.604" y="751.1748">weather, and forecast confidence</text><rect fill="#F8FAFC" height="37.4609" rx="4" ry="4" style="stroke:#455A64;stroke-width:0.5;" width="274.0259" x="297.5237" y="784.7124"/><text fill="#000000" font-family="'DejaVu Sans'" font-size="15" lengthAdjust="spacing" textLength="254.0259" x="307.5237" y="808.6357">Add the summed-score candidate</text><polygon fill="#FFF8E1" points="292.478,828.1733,304.478,840.1733,292.478,852.1733,280.478,840.1733,292.478,828.1733" style="stroke:#8D6E63;stroke-width:0.5;stroke-linejoin:miter;stroke-miterlimit:10;"/><rect fill="#F8FAFC" height="37.4609" rx="4" ry="4" style="stroke:#455A64;stroke-width:0.5;" width="199.3042" x="601.5496" y="583.4077"/><text fill="#000000" font-family="'DejaVu Sans'" font-size="15" lengthAdjust="spacing" textLength="179.3042" x="611.5496" y="607.3311">Omit the ended window</text><polygon fill="#FFF8E1" points="496.8398,858.1733,508.8398,870.1733,496.8398,882.1733,484.8398,870.1733,496.8398,858.1733" style="stroke:#8D6E63;stroke-width:0.5;stroke-linejoin:miter;stroke-miterlimit:10;"/><polygon fill="#FFF8E1" points="380.6887,276.1406,612.991,276.1406,624.991,288.1406,612.991,300.1406,380.6887,300.1406,368.6887,288.1406,380.6887,276.1406" style="stroke:#8D6E63;stroke-width:0.5;stroke-linejoin:miter;stroke-miterlimit:10;"/><text fill="#000000" font-family="'DejaVu Sans'" font-size="15" lengthAdjust="spacing" textLength="25.9204" x="500.8398" y="314.064">yes</text><text fill="#000000" font-family="'DejaVu Sans'" font-size="15" lengthAdjust="spacing" textLength="232.3022" x="380.6887" y="293.3335">Unprocessed window remains?</text><text fill="#000000" font-family="'DejaVu Sans'" font-size="15" lengthAdjust="spacing" textLength="18.6841" x="350.0046" y="284.603">no</text><rect fill="#F8FAFC" height="37.4609" rx="4" ry="4" style="stroke:#455A64;stroke-width:0.5;" width="182.3633" x="842.8538" y="276.1406"/><text fill="#000000" font-family="'DejaVu Sans'" font-size="15" lengthAdjust="spacing" textLength="162.3633" x="852.8538" y="300.064">No scored candidates</text><polygon fill="#FFF8E1" points="715.4376,910.1733,727.4376,922.1733,715.4376,934.1733,703.4376,922.1733,715.4376,910.1733" style="stroke:#8D6E63;stroke-width:0.5;stroke-linejoin:miter;stroke-miterlimit:10;"/><rect fill="#F8FAFC" height="37.4609" rx="4" ry="4" style="stroke:#455A64;stroke-width:0.5;" width="180.8472" x="625.014" y="954.1733"/><text fill="#000000" font-family="'DejaVu Sans'" font-size="15" lengthAdjust="spacing" textLength="160.8472" x="635.014" y="978.0967">Sort total descending</text><rect fill="#F8FAFC" height="37.4609" rx="4" ry="4" style="stroke:#455A64;stroke-width:0.5;" width="283.4888" x="573.6932" y="1011.6343"/><text fill="#000000" font-family="'DejaVu Sans'" font-size="15" lengthAdjust="spacing" textLength="151.6772" x="583.6932" y="1035.5576">Break ties by earlier</text><text fill="#000000" font-family="'DejaVu Sans'" font-size="15" font-weight="700" lengthAdjust="spacing" textLength="107.0435" x="740.1385" y="1035.5576">suggestedAt</text><path d="M847.2919,1074.0952 L847.2919,1083.8257 L827.2919,1087.8257 L847.2919,1091.8257 L847.2919,1101.5562 A0,0 0 0 0 847.2919,1101.5562 L1125.4965,1101.5562 A0,0 0 0 0 1125.4965,1101.5562 L1125.4965,1084.0952 L1115.4965,1074.0952 L847.2919,1074.0952 A0,0 0 0 0 847.2919,1074.0952" fill="#FEFFDD" style="stroke:#181818;stroke-width:0.5;"/><path d="M1115.4965,1074.0952 L1115.4965,1084.0952 L1125.4965,1084.0952 L1115.4965,1074.0952" fill="#FEFFDD" style="stroke:#181818;stroke-width:0.5;"/><text fill="#000000" font-family="'DejaVu Sans'" font-size="15" lengthAdjust="spacing" textLength="257.2046" x="853.2919" y="1093.0186">No minimum total-score threshold</text><rect fill="#F8FAFC" height="37.4609" rx="4" ry="4" style="stroke:#455A64;stroke-width:0.5;" width="223.7085" x="603.5834" y="1069.0952"/><text fill="#000000" font-family="'DejaVu Sans'" font-size="15" lengthAdjust="spacing" textLength="203.7085" x="613.5834" y="1093.0186">Apply default or caller limit</text><path d="M885.6378,1116.5562 L885.6378,1152.478 L865.6378,1156.478 L885.6378,1160.478 L885.6378,1196.3999 A0,0 0 0 0 885.6378,1196.3999 L1217.6754,1196.3999 A0,0 0 0 0 1217.6754,1196.3999 L1217.6754,1126.5562 L1207.6754,1116.5562 L885.6378,1116.5562 A0,0 0 0 0 885.6378,1116.5562" fill="#FEFFDD" style="stroke:#181818;stroke-width:0.5;"/><path d="M1207.6754,1116.5562 L1207.6754,1126.5562 L1217.6754,1126.5562 L1207.6754,1116.5562" fill="#FEFFDD" style="stroke:#181818;stroke-width:0.5;"/><text fill="#000000" font-family="'DejaVu Sans'" font-size="15" lengthAdjust="spacing" textLength="311.0376" x="891.6378" y="1135.4795">The opportunity list may be empty when:</text><ellipse cx="897.1378" cy="1148.978" fill="#000000" rx="2.5" ry="2.5"/><text fill="#000000" font-family="'DejaVu Sans'" font-size="15" lengthAdjust="spacing" textLength="275.5151" x="903.6378" y="1152.9404">no natural windows were generated;</text><ellipse cx="897.1378" cy="1166.439" fill="#000000" rx="2.5" ry="2.5"/><text fill="#000000" font-family="'DejaVu Sans'" font-size="15" lengthAdjust="spacing" textLength="209.8169" x="903.6378" y="1170.4014">no live portion remained; or</text><ellipse cx="897.1378" cy="1183.8999" fill="#000000" rx="2.5" ry="2.5"/><text fill="#000000" font-family="'DejaVu Sans'" font-size="15" lengthAdjust="spacing" textLength="276.9653" x="903.6378" y="1187.8623">every retained window was rejected.</text><rect fill="#F8FAFC" height="37.4609" rx="4" ry="4" style="stroke:#455A64;stroke-width:0.5;" width="300.4004" x="565.2374" y="1137.7476"/><text fill="#000000" font-family="'DejaVu Sans'" font-size="15" lengthAdjust="spacing" textLength="53.6572" x="575.2374" y="1161.6709">Format</text><text fill="#000000" font-family="'DejaVu Sans'" font-size="15" font-weight="700" lengthAdjust="spacing" textLength="84.4995" x="633.6627" y="1161.6709">status: ok</text><text fill="#000000" font-family="'DejaVu Sans'" font-size="15" lengthAdjust="spacing" textLength="132.7075" x="722.9303" y="1161.6709">and opportunities</text><ellipse cx="715.4376" cy="1227.3999" fill="none" rx="11" ry="11" style="stroke:#222222;stroke-width:1;"/><ellipse cx="715.4376" cy="1227.3999" fill="#222222" rx="6" ry="6" style="stroke:#222222;stroke-width:1;"/><line style="stroke:#455A64;stroke-width:1;" x1="715.4376" x2="715.4376" y1="72.2969" y2="92.2969"/><polygon fill="#455A64" points="711.4376,82.2969,715.4376,92.2969,719.4376,82.2969,715.4376,86.2969" style="stroke:#455A64;stroke-width:1;stroke-linejoin:miter;stroke-miterlimit:10;"/><line style="stroke:#455A64;stroke-width:1;" x1="715.4376" x2="715.4376" y1="147.2188" y2="167.2188"/><polygon fill="#455A64" points="711.4376,157.2188,715.4376,167.2188,719.4376,157.2188,715.4376,161.2188" style="stroke:#455A64;stroke-width:1;stroke-linejoin:miter;stroke-miterlimit:10;"/><line style="stroke:#455A64;stroke-width:1;" x1="432.7866" x2="342.7444" y1="422.4858" y2="422.4858"/><line style="stroke:#455A64;stroke-width:1;" x1="342.7444" x2="342.7444" y1="422.4858" y2="444.4858"/><polygon fill="#455A64" points="338.7444,434.4858,342.7444,444.4858,346.7444,434.4858,342.7444,438.4858" style="stroke:#455A64;stroke-width:1;stroke-linejoin:miter;stroke-miterlimit:10;"/><line style="stroke:#455A64;stroke-width:1;" x1="560.8931" x2="650.9353" y1="422.4858" y2="422.4858"/><line style="stroke:#455A64;stroke-width:1;" x1="650.9353" x2="650.9353" y1="422.4858" y2="444.4858"/><polygon fill="#455A64" points="646.9353,434.4858,650.9353,444.4858,654.9353,434.4858,650.9353,438.4858" style="stroke:#455A64;stroke-width:1;stroke-linejoin:miter;stroke-miterlimit:10;"/><line style="stroke:#455A64;stroke-width:1;" x1="342.7444" x2="342.7444" y1="499.4077" y2="517.4077"/><line style="stroke:#455A64;stroke-width:1;" x1="342.7444" x2="484.8398" y1="517.4077" y2="517.4077"/><polygon fill="#455A64" points="474.8398,513.4077,484.8398,517.4077,474.8398,521.4077,478.8398,517.4077" style="stroke:#455A64;stroke-width:1;stroke-linejoin:miter;stroke-miterlimit:10;"/><line style="stroke:#455A64;stroke-width:1;" x1="650.9353" x2="650.9353" y1="481.9468" y2="517.4077"/><line style="stroke:#455A64;stroke-width:1;" x1="650.9353" x2="508.8398" y1="517.4077" y2="517.4077"/><polygon fill="#455A64" points="518.8398,513.4077,508.8398,517.4077,518.8398,521.4077,514.8398,517.4077" style="stroke:#455A64;stroke-width:1;stroke-linejoin:miter;stroke-miterlimit:10;"/><line style="stroke:#455A64;stroke-width:1;" x1="496.8398" x2="496.8398" y1="390.4858" y2="410.4858"/><polygon fill="#455A64" points="492.8398,400.4858,496.8398,410.4858,500.8398,400.4858,496.8398,404.4858" style="stroke:#455A64;stroke-width:1;stroke-linejoin:miter;stroke-miterlimit:10;"/><line style="stroke:#455A64;stroke-width:1;" x1="434.5366" x2="434.5366" y1="672.3296" y2="692.3296"/><polygon fill="#455A64" points="430.5366,682.3296,434.5366,692.3296,438.5366,682.3296,434.5366,686.3296" style="stroke:#455A64;stroke-width:1;stroke-linejoin:miter;stroke-miterlimit:10;"/><line style="stroke:#455A64;stroke-width:1;" x1="434.5366" x2="434.5366" y1="764.7124" y2="784.7124"/><polygon fill="#455A64" points="430.5366,774.7124,434.5366,784.7124,438.5366,774.7124,434.5366,778.7124" style="stroke:#455A64;stroke-width:1;stroke-linejoin:miter;stroke-miterlimit:10;"/><line style="stroke:#455A64;stroke-width:1;" x1="160.4194" x2="150.4194" y1="595.4077" y2="595.4077"/><line style="stroke:#455A64;stroke-width:1;" x1="150.4194" x2="150.4194" y1="595.4077" y2="617.4077"/><polygon fill="#455A64" points="146.4194,607.4077,150.4194,617.4077,154.4194,607.4077,150.4194,611.4077" style="stroke:#455A64;stroke-width:1;stroke-linejoin:miter;stroke-miterlimit:10;"/><line style="stroke:#455A64;stroke-width:1;" x1="424.5366" x2="434.5366" y1="595.4077" y2="595.4077"/><line style="stroke:#455A64;stroke-width:1;" x1="434.5366" x2="434.5366" y1="595.4077" y2="617.4077"/><polygon fill="#455A64" points="430.5366,607.4077,434.5366,617.4077,438.5366,607.4077,434.5366,611.4077" style="stroke:#455A64;stroke-width:1;stroke-linejoin:miter;stroke-miterlimit:10;"/><line style="stroke:#455A64;stroke-width:1;" x1="150.4194" x2="150.4194" y1="654.8687" y2="840.1733"/><line style="stroke:#455A64;stroke-width:1;" x1="150.4194" x2="280.478" y1="840.1733" y2="840.1733"/><polygon fill="#455A64" points="270.478,836.1733,280.478,840.1733,270.478,844.1733,274.478,840.1733" style="stroke:#455A64;stroke-width:1;stroke-linejoin:miter;stroke-miterlimit:10;"/><line style="stroke:#455A64;stroke-width:1;" x1="434.5366" x2="434.5366" y1="822.1733" y2="840.1733"/><line style="stroke:#455A64;stroke-width:1;" x1="434.5366" x2="304.478" y1="840.1733" y2="840.1733"/><polygon fill="#455A64" points="314.478,836.1733,304.478,840.1733,314.478,844.1733,310.478,840.1733" style="stroke:#455A64;stroke-width:1;stroke-linejoin:miter;stroke-miterlimit:10;"/><line style="stroke:#455A64;stroke-width:1;" x1="417.2922" x2="292.478" y1="561.4077" y2="561.4077"/><line style="stroke:#455A64;stroke-width:1;" x1="292.478" x2="292.478" y1="561.4077" y2="583.4077"/><polygon fill="#455A64" points="288.478,573.4077,292.478,583.4077,296.478,573.4077,292.478,577.4077" style="stroke:#455A64;stroke-width:1;stroke-linejoin:miter;stroke-miterlimit:10;"/><line style="stroke:#455A64;stroke-width:1;" x1="576.3875" x2="701.2017" y1="561.4077" y2="561.4077"/><line style="stroke:#455A64;stroke-width:1;" x1="701.2017" x2="701.2017" y1="561.4077" y2="583.4077"/><polygon fill="#455A64" points="697.2017,573.4077,701.2017,583.4077,705.2017,573.4077,701.2017,577.4077" style="stroke:#455A64;stroke-width:1;stroke-linejoin:miter;stroke-miterlimit:10;"/><line style="stroke:#455A64;stroke-width:1;" x1="292.478" x2="292.478" y1="852.1733" y2="870.1733"/><line style="stroke:#455A64;stroke-width:1;" x1="292.478" x2="484.8398" y1="870.1733" y2="870.1733"/><polygon fill="#455A64" points="474.8398,866.1733,484.8398,870.1733,474.8398,874.1733,478.8398,870.1733" style="stroke:#455A64;stroke-width:1;stroke-linejoin:miter;stroke-miterlimit:10;"/><line style="stroke:#455A64;stroke-width:1;" x1="701.2017" x2="701.2017" y1="620.8687" y2="870.1733"/><line style="stroke:#455A64;stroke-width:1;" x1="701.2017" x2="508.8398" y1="870.1733" y2="870.1733"/><polygon fill="#455A64" points="518.8398,866.1733,508.8398,870.1733,518.8398,874.1733,514.8398,870.1733" style="stroke:#455A64;stroke-width:1;stroke-linejoin:miter;stroke-miterlimit:10;"/><line style="stroke:#455A64;stroke-width:1;" x1="496.8398" x2="496.8398" y1="529.4077" y2="549.4077"/><polygon fill="#455A64" points="492.8398,539.4077,496.8398,549.4077,500.8398,539.4077,496.8398,543.4077" style="stroke:#455A64;stroke-width:1;stroke-linejoin:miter;stroke-miterlimit:10;"/><line style="stroke:#455A64;stroke-width:1;" x1="496.8398" x2="496.8398" y1="300.1406" y2="335.564"/><polygon fill="#455A64" points="492.8398,325.564,496.8398,335.564,500.8398,325.564,496.8398,329.564" style="stroke:#455A64;stroke-width:1;stroke-linejoin:miter;stroke-miterlimit:10;"/><line style="stroke:#455A64;stroke-width:1;" x1="496.8398" x2="496.8398" y1="882.1733" y2="892.1733"/><line style="stroke:#455A64;stroke-width:1;" x1="496.8398" x2="822.8538" y1="892.1733" y2="892.1733"/><polygon fill="#455A64" points="818.8538,598.1382,822.8538,588.1382,826.8538,598.1382,822.8538,594.1382" style="stroke:#455A64;stroke-width:1;stroke-linejoin:miter;stroke-miterlimit:10;"/><line style="stroke:#455A64;stroke-width:1;" x1="822.8538" x2="822.8538" y1="288.1406" y2="892.1733"/><line style="stroke:#455A64;stroke-width:1;" x1="822.8538" x2="624.991" y1="288.1406" y2="288.1406"/><polygon fill="#455A64" points="634.991,284.1406,624.991,288.1406,634.991,292.1406,630.991,288.1406" style="stroke:#455A64;stroke-width:1;stroke-linejoin:miter;stroke-miterlimit:10;"/><line style="stroke:#455A64;stroke-width:1;" x1="368.6887" x2="29" y1="288.1406" y2="288.1406"/><polygon fill="#455A64" points="25,593.1382,29,603.1382,33,593.1382,29,597.1382" style="stroke:#455A64;stroke-width:1;stroke-linejoin:miter;stroke-miterlimit:10;"/><line style="stroke:#455A64;stroke-width:1;" x1="29" x2="29" y1="288.1406" y2="922.1733"/><line style="stroke:#455A64;stroke-width:1;" x1="29" x2="703.4376" y1="922.1733" y2="922.1733"/><polygon fill="#455A64" points="693.4376,918.1733,703.4376,922.1733,693.4376,926.1733,697.4376,922.1733" style="stroke:#455A64;stroke-width:1;stroke-linejoin:miter;stroke-miterlimit:10;"/><line style="stroke:#455A64;stroke-width:1;" x1="609.2665" x2="496.8398" y1="254.1406" y2="254.1406"/><line style="stroke:#455A64;stroke-width:1;" x1="496.8398" x2="496.8398" y1="254.1406" y2="276.1406"/><polygon fill="#455A64" points="492.8398,266.1406,496.8398,276.1406,500.8398,266.1406,496.8398,270.1406" style="stroke:#455A64;stroke-width:1;stroke-linejoin:miter;stroke-miterlimit:10;"/><line style="stroke:#455A64;stroke-width:1;" x1="821.6088" x2="934.0354" y1="254.1406" y2="254.1406"/><line style="stroke:#455A64;stroke-width:1;" x1="934.0354" x2="934.0354" y1="254.1406" y2="276.1406"/><polygon fill="#455A64" points="930.0354,266.1406,934.0354,276.1406,938.0354,266.1406,934.0354,270.1406" style="stroke:#455A64;stroke-width:1;stroke-linejoin:miter;stroke-miterlimit:10;"/><line style="stroke:#455A64;stroke-width:1;" x1="934.0354" x2="934.0354" y1="313.6016" y2="922.1733"/><line style="stroke:#455A64;stroke-width:1;" x1="934.0354" x2="727.4376" y1="922.1733" y2="922.1733"/><polygon fill="#455A64" points="737.4376,918.1733,727.4376,922.1733,737.4376,926.1733,733.4376,922.1733" style="stroke:#455A64;stroke-width:1;stroke-linejoin:miter;stroke-miterlimit:10;"/><line style="stroke:#455A64;stroke-width:1;" x1="715.4376" x2="715.4376" y1="222.1406" y2="242.1406"/><polygon fill="#455A64" points="711.4376,232.1406,715.4376,242.1406,719.4376,232.1406,715.4376,236.1406" style="stroke:#455A64;stroke-width:1;stroke-linejoin:miter;stroke-miterlimit:10;"/><line style="stroke:#455A64;stroke-width:1;" x1="715.4376" x2="715.4376" y1="934.1733" y2="954.1733"/><polygon fill="#455A64" points="711.4376,944.1733,715.4376,954.1733,719.4376,944.1733,715.4376,948.1733" style="stroke:#455A64;stroke-width:1;stroke-linejoin:miter;stroke-miterlimit:10;"/><line style="stroke:#455A64;stroke-width:1;" x1="715.4376" x2="715.4376" y1="991.6343" y2="1011.6343"/><polygon fill="#455A64" points="711.4376,1001.6343,715.4376,1011.6343,719.4376,1001.6343,715.4376,1005.6343" style="stroke:#455A64;stroke-width:1;stroke-linejoin:miter;stroke-miterlimit:10;"/><line style="stroke:#455A64;stroke-width:1;" x1="715.4376" x2="715.4376" y1="1049.0952" y2="1069.0952"/><polygon fill="#455A64" points="711.4376,1059.0952,715.4376,1069.0952,719.4376,1059.0952,715.4376,1063.0952" style="stroke:#455A64;stroke-width:1;stroke-linejoin:miter;stroke-miterlimit:10;"/><line style="stroke:#455A64;stroke-width:1;" x1="715.4376" x2="715.4376" y1="1106.5562" y2="1137.7476"/><polygon fill="#455A64" points="711.4376,1127.7476,715.4376,1137.7476,719.4376,1127.7476,715.4376,1131.7476" style="stroke:#455A64;stroke-width:1;stroke-linejoin:miter;stroke-miterlimit:10;"/><line style="stroke:#455A64;stroke-width:1;" x1="715.4376" x2="715.4376" y1="1175.2085" y2="1216.3999"/><polygon fill="#455A64" points="711.4376,1206.3999,715.4376,1216.3999,719.4376,1206.3999,715.4376,1210.3999" style="stroke:#455A64;stroke-width:1;stroke-linejoin:miter;stroke-miterlimit:10;"/><?plantuml-src RLHDRzj64BtpLqoJYwFAGOF6Xa4T0lb3GL4qAI8tEO-v8t7j_M1tbrBKel-zRscIObMV273VpBnvRsP-Q09lBPFXWsyJHIk97HVnIRk60rjIik7Mf9LtwHDReLUtyiXVMrgpYwzUngtrNqBlBYQFiMRbzzfjQSCcokGb-DQfoWSdWQuc_vSX-FsDDpxGw_SN5ylBzvD7hfBUwNIWlmkYQwwUjbsQ7hwwMYrND_d51oNXlqc8RZLRxzJ_mrQhgxjt4y0q-khsykxoPpok4uTqcl9kJDB_-gSeaav6w1VR6B7YaYZw-XFvfl4XjIvpbnsRbfFshYXYpbgKNoHwimCKgJRwUsg3aF5L1veNGVvi9QOviLEq5qurD8k-3PKiYlAZG49EGeuHnuPsEke78-U_ULHeE4Q20N0XqYPuIzBK81PqN1I5tj3PqXres-TG0_J36q8LHsS7YM_GwBxMQEhi3zS4NqcC8vA2MDOk1-WumedAczhxA3IRnNQx1NjHopIRTHGwG6PtpWPgjKheHugjCtfR9_IVm2n3ChjhJ4D4kn_lxayvTMLkTQmuA4X3ujH8QvwLj7udFUwKHlBaG1uWWxR3eeC99fJEb0vI9Vhzy_f-hFAhI9EBZ-RqpRUkgjbjHVK9dDAR8_TlWq892ebwYN-6tTVQKHKaLXWNSiA1AkyUaJlR_r8K67qHx0xQHlP7q1qRN_IGvrwSduIinUJ6XW7YTAfAEM9h39SvPD6Hloi4fR8YWm2BILgyPs5s0jgsyGvTn6EgmUBvwF2Sj36jrQuVxm7P4tiUymsILXnJbcAZbRXgMdEfL6T7RAqLTHux2XNYj8ATemQT7I-fKNwsEdKPfaCpDR7xzbEVuwOPoa-UkfBgM1FRrBjVhh7f6B24LLITgGht3ujw7OIVA6c9z80hmC5es73Y0N3Bfe7s_LdDmbTi3916sxmQpcFNGnQo9121ZjgszhbWhqIgCKsrDweeLpxOPwSJpaCioJzX_BF2nvEaC_jZMdHu3sMc9yjeE67vG0zGp3RuiyTCPfDdsAFnyWntPYyWCTwKnG0pUKPoKjZUtmsyeiCE83i9Xt5PXWtRSnn7_6sMc39Ht4tV5Fy2?></g></svg>