<svg xmlns="http://www.w3.org/2000/svg" viewBox="-24 -24 48 48" role="img" aria-labelledby="title desc">
  <title id="title">Sun marker aperture flare</title>
  <desc id="desc">Selected Sun path marker with long rays, a dark aperture center, and a small upper-left lens flare.</desc>
  <defs>
    <radialGradient id="sun-disk-gradient" cx="38%" cy="32%" r="68%">
      <stop offset="0" stop-color="#fff8bc"/>
      <stop offset="0.46" stop-color="#ffd15c"/>
      <stop offset="1" stop-color="#e18b22"/>
    </radialGradient>
  </defs>
  <circle cx="0" cy="0" r="17.5" fill="#ffc247" fill-opacity="0.22" stroke="#6f4307" stroke-opacity="0.18" stroke-width="1"/>
  <g fill="none" stroke="#6f4307" stroke-linecap="round">
    <line x1="-20" y1="0" x2="-14.6" y2="0" stroke-width="1.35"/>
    <line x1="14.6" y1="0" x2="20" y2="0" stroke-width="1.35"/>
    <line x1="0" y1="-20" x2="0" y2="-14.6" stroke-width="1.35"/>
    <line x1="0" y1="14.6" x2="0" y2="20" stroke-width="1.35"/>
    <line x1="-14.2" y1="-14.2" x2="-10.6" y2="-10.6" stroke-width="1.05"/>
    <line x1="10.6" y1="-10.6" x2="14.2" y2="-14.2" stroke-width="1.05"/>
    <line x1="-14.2" y1="14.2" x2="-10.6" y2="10.6" stroke-width="1.05"/>
    <line x1="10.6" y1="10.6" x2="14.2" y2="14.2" stroke-width="1.05"/>
  </g>
  <circle cx="0" cy="0" r="12.5" fill="url(#sun-disk-gradient)" stroke="#6f4307" stroke-width="1.3"/>
  <circle cx="0" cy="0" r="8.8" fill="none" stroke="#6f4307" stroke-linecap="round" stroke-width="0.85" opacity="0.7"/>
  <path d="M0 -11.8l10.2 5.9v11.8L0 11.8l-10.2 -5.9v-11.8z" fill="#5d3808" fill-opacity="0.78" stroke="#fff6be" stroke-opacity="0.76" stroke-linejoin="round" stroke-width="0.95"/>
  <circle cx="-3.5" cy="-4.9" r="2.7" fill="#ffec9c" fill-opacity="0.42"/>
  <circle cx="-3.9" cy="-5.2" r="1.15" fill="#ffffe6" fill-opacity="0.72"/>
</svg>
